<?xml version="1.0" encoding="UTF-8" standalone="no"?>
<svg
   xmlns:dc="http://purl.org/dc/elements/1.1/"
   xmlns:cc="http://creativecommons.org/ns#"
   xmlns:rdf="http://www.w3.org/1999/02/22-rdf-syntax-ns#"
   xmlns:svg="http://www.w3.org/2000/svg"
   xmlns="http://www.w3.org/2000/svg"
   xmlns:sodipodi="http://sodipodi.sourceforge.net/DTD/sodipodi-0.dtd"
   xmlns:inkscape="http://www.inkscape.org/namespaces/inkscape"
   width="171"
   height="200"
   version="1.1"
   id="svg29391"
   sodipodi:docname="IG.svg"
   inkscape:version="0.92.2 (5c3e80d, 2017-08-06)">
  <metadata
     id="metadata29395">
    <rdf:RDF>
      <cc:Work
         rdf:about="">
        <dc:format>image/svg+xml</dc:format>
        <dc:type
           rdf:resource="http://purl.org/dc/dcmitype/StillImage" />
      </cc:Work>
    </rdf:RDF>
  </metadata>
  <sodipodi:namedview
     pagecolor="#ffffff"
     bordercolor="#666666"
     borderopacity="1"
     objecttolerance="10"
     gridtolerance="10"
     guidetolerance="10"
     inkscape:pageopacity="0"
     inkscape:pageshadow="2"
     inkscape:window-width="1440"
     inkscape:window-height="837"
     id="namedview29393"
     showgrid="false"
     inkscape:zoom="2.1564689"
     inkscape:cx="25.439681"
     inkscape:cy="118.94294"
     inkscape:window-x="-8"
     inkscape:window-y="-8"
     inkscape:window-maximized="1"
     inkscape:current-layer="svg29391" />
  <defs
     id="SvgjsDefs1162" />
  <g
     id="SvgjsG1163"
     featurekey="root"
     fill="#ffffff"
     transform="matrix(1,0,0,1,0,0)"
     style="fill:#222222;fill-opacity:1" />
  <g
     id="SvgjsG1164"
     featurekey="text4"
     transform="matrix(1.4705882,0,0,1.4705882,12.176487,-13.529412)"
     style="fill:#222222;fill-opacity:1">
    <g
       transform="translate(0,-952.36218)"
       id="g29385"
       style="fill:#222222;fill-opacity:1">
      <path
         d="m 46.99999,968.36218 -34.03125,7.4688 14.03125,59.00002 34,-7.4688 -1.78125,-7.4688 c -1.79277,-0.4394 -3.70353,-0.976 -5.8125,-1.625 -0.80691,-0.2509 -1.40465,-1.0612 -1.40625,-1.9062 v -12.4062 l -9.71875,-3.75 c -0.73964,-0.29322 -1.26302,-1.06382 -1.26302,-1.85942 0,-0.79561 0.52338,-1.5662 1.26302,-1.85941 l 10.4375,-4 z m -10.5,7.0625 1,3.875 -12,3 -1,-3.875 z m -27.4375001,1.2813 -3.0625,0.6562 14.0000001,59.00002 3.125,-0.6875 z m 59.9375201,11.6562 -26.00002,10 26.00002,10.00002 25,-10.00002 z m 22,13.34382 -2,0.8124 v 6.0938 c -0.60978,0.3521 -1.00626,1.0459 -1,1.75 v 6 c -0.0149,1.0566 0.94327,2.0285 2,2.0285 1.05673,0 2.01494,-0.9719 2,-2.0285 v -6 c 0.0174,-0.7144 -0.38102,-1.4241 -1,-1.7812 z m -7,2.8124 -14.25,5.6876 c -0.46631,0.1841 -1.00249,0.1841 -1.4688,0 l -14.28122,-5.5 v 11.6562 c 13.00002,4 18.00002,4 30.00002,0 z m -34.43752,5.875 0.875,3.9063 -23,5 -0.875,-3.9063 z m 2.03125,6 0.8125,3.9063 -24,5 -0.8125,-3.9063 z"
         style="display:inline;overflow:visible;visibility:visible;fill:#222222;stroke:none;fill-opacity:1"
         marker="none"
         visibility="visible"
         display="inline"
         overflow="visible"
         id="path29383"
         inkscape:connector-curvature="0" />
    </g>
  </g>
  <g
     id="SvgjsG1165"
     featurekey="text1"
     transform="matrix(3.8071056,0,0,3.8071056,0,37.715761)"
     style="fill:#222222;fill-opacity:1">
    <path
       d="M 0,24.24 V 40 H 0.52 V 24.24 Z M 7.4,40 7.46,39.36 Q 6.32,39.24 5.53,38.59 4.74,37.94 4.26,36.98 3.78,36.02 3.57,34.84 3.36,33.66 3.36,32.48 v -0.74 q 0,-1.28 0.26,-2.51 0.26,-1.23 0.8,-2.19 0.54,-0.96 1.39,-1.55 0.85,-0.59 2.03,-0.59 1.02,0 1.56,0.26 0.54,0.26 0.98,0.6 l 0.4,-0.5 Q 10.2,24.8 9.55,24.53 8.9,24.26 7.84,24.26 q -2.3,0 -3.71,2.05 -1.41,2.05 -1.41,5.43 v 0.74 q 0,3.24 1.25,5.26 1.25,2.02 3.43,2.26 z m 1.1,0 q 1.7,-0.12 2.94,-1.14 l 0.12,-0.1 V 33.42 H 7.62 v 0.66 h 3.3 v 4.38 q -1.04,0.78 -2.46,0.9 z m 12.6,-0.04 0.04,-0.64 Q 18.2,39.12 16.46,36.88 14.8,34.8 14.8,31.86 q 0,-1.54 0.5,-2.67 0.5,-1.13 1.5,-2.19 2,-2.1 5,-2.1 1.82,0 3.28,0.78 1.46,0.78 2.38,2.18 l 0.48,-0.38 q -1,-1.52 -2.6,-2.38 -1.52,-0.82 -3.44,-0.8 -1.62,0 -3.04,0.55 -1.42,0.55 -2.5,1.69 -1.08,1.16 -1.63,2.4 -0.55,1.24 -0.55,2.92 0.02,3.18 1.82,5.44 1.92,2.42 5.1,2.66 z m 1.22,0.02 q 1.64,-0.1 3,-0.78 1.56,-0.8 2.62,-2.26 l -0.46,-0.4 q -0.96,1.32 -2.42,2.08 -1.26,0.64 -2.76,0.72 z m 10.1,-8.96 1.78,1.66 q 0.84,0.78 1.32,1.67 0.48,0.89 0.48,1.79 v 0.26 q 0.02,0.64 -0.16,1.14 h 0.74 Q 36.74,37 36.72,36.42 v -0.28 q 0,-1.08 -0.55,-2.06 -0.55,-0.98 -1.53,-1.92 L 32.92,30.54 Q 32.1,29.76 31.57,29.08 31.04,28.4 31.04,27.38 v -0.12 q 0,-1.06 0.59,-1.71 0.59,-0.65 1.65,-0.65 0.76,0 1.24,0.23 0.48,0.23 0.98,0.69 l 0.46,-0.52 q -0.56,-0.52 -1.15,-0.78 -0.59,-0.26 -1.53,-0.26 -1.22,0 -2.07,0.79 -0.85,0.79 -0.85,2.19 v 0.16 q 0,1.14 0.57,1.95 0.57,0.81 1.49,1.67 z m 3.88,7.28 h -0.82 q -0.7,1.02 -2.24,1.04 -0.52,0 -0.94,-0.12 v 0.7 q 0.42,0.08 0.94,0.08 1.08,0 1.86,-0.44 0.78,-0.44 1.2,-1.26 z m 3.58,-4.14 V 24.8 h 4.8 v -0.56 h -5.36 v 9.92 z m 5,5.84 v -0.54 h -5 v -4.14 h 0.8 V 34.78 H 39.32 V 40 Z"
       id="path29388"
       inkscape:connector-curvature="0"
       style="fill:#222222;fill-opacity:1" />
  </g>
</svg>
