<?xml version="1.0" encoding="UTF-8" standalone="no"?>
<svg
   xmlns:dc="http://purl.org/dc/elements/1.1/"
   xmlns:cc="http://creativecommons.org/ns#"
   xmlns:rdf="http://www.w3.org/1999/02/22-rdf-syntax-ns#"
   xmlns:svg="http://www.w3.org/2000/svg"
   xmlns="http://www.w3.org/2000/svg"
   xmlns:sodipodi="http://sodipodi.sourceforge.net/DTD/sodipodi-0.dtd"
   xmlns:inkscape="http://www.inkscape.org/namespaces/inkscape"
   width="773"
   height="200"
   version="1.1"
   id="svg24884"
   sodipodi:docname="AC.svg"
   inkscape:version="0.92.2 (5c3e80d, 2017-08-06)">
  <metadata
     id="metadata24888">
    <rdf:RDF>
      <cc:Work
         rdf:about="">
        <dc:format>image/svg+xml</dc:format>
        <dc:type
           rdf:resource="http://purl.org/dc/dcmitype/StillImage" />
      </cc:Work>
    </rdf:RDF>
  </metadata>
  <sodipodi:namedview
     pagecolor="#ffffff"
     bordercolor="#666666"
     borderopacity="1"
     objecttolerance="10"
     gridtolerance="10"
     guidetolerance="10"
     inkscape:pageopacity="0"
     inkscape:pageshadow="2"
     inkscape:window-width="1440"
     inkscape:window-height="837"
     id="namedview24886"
     showgrid="false"
     inkscape:zoom="0.95409104"
     inkscape:cx="328.94"
     inkscape:cy="103.35501"
     inkscape:window-x="-8"
     inkscape:window-y="-8"
     inkscape:window-maximized="1"
     inkscape:current-layer="svg24884" />
  <defs
     id="SvgjsDefs1134" />
  <g
     id="SvgjsG1135"
     featurekey="root"
     fill="#ffffff"
     transform="matrix(1,0,0,1,0,0)" />
  <g
     id="SvgjsG1136"
     featurekey="text4"
     fill="#d2ba36"
     transform="matrix(1.4705882352941178,0,0,1.4705882352941178,313.176487417782,-13.529411764705884)">
    <g
       transform="translate(0,-952.36218)"
       id="g24878">
      <path
         d="m 46.99999,968.36218 -34.03125,7.4688 14.03125,59.00002 34,-7.4688 -1.78125,-7.4688 c -1.79277,-0.4394 -3.70353,-0.976 -5.8125,-1.625 -0.80691,-0.2509 -1.40465,-1.0612 -1.40625,-1.9062 l 0,-12.4062 -9.71875,-3.75 c -0.73964,-0.29322 -1.26302,-1.06382 -1.26302,-1.85942 0,-0.79561 0.52338,-1.5662 1.26302,-1.85941 l 10.4375,-4 z m -10.5,7.0625 1,3.875 -12,3 -1,-3.875 z m -27.4375001,1.2813 -3.0625,0.6562 14.0000001,59.00002 3.125,-0.6875 z m 59.9375201,11.6562 -26.00002,10 26.00002,10.00002 25,-10.00002 z m 22,13.34382 -2,0.8124 0,6.0938 c -0.60978,0.3521 -1.00626,1.0459 -1,1.75 l 0,6 c -0.0149,1.0566 0.94327,2.0285 2,2.0285 1.05673,0 2.01494,-0.9719 2,-2.0285 l 0,-6 c 0.0174,-0.7144 -0.38102,-1.4241 -1,-1.7812 z m -7,2.8124 -14.25,5.6876 c -0.46631,0.1841 -1.00249,0.1841 -1.4688,0 l -14.28122,-5.5 0,11.6562 c 13.00002,4 18.00002,4 30.00002,0 z m -34.43752,5.875 0.875,3.9063 -23,5 -0.875,-3.9063 z m 2.03125,6 0.8125,3.9063 -24,5 -0.8125,-3.9063 z"
         style="color:;enable-background:accumulate;"
         fill="#d2ba36"
         stroke="none"
         marker="none"
         visibility="visible"
         display="inline"
         overflow="visible"
         id="path24876" />
    </g>
  </g>
  <g
     id="SvgjsG1137"
     featurekey="text1"
     transform="matrix(3.8071047,0,0,3.8071047,0,37.715783)"
     style="fill:#d2ba36;fill-opacity:1">
    <path
       d="m 5.34,26.14 q 0,0.12 0.71,2.29 0.71,2.17 1.55,4.75 0.84,2.58 2.26,6.82 h 0.86 L 5.42,24.24 H 5.26 L 0,40 H 0.82 Z M 4.98,35.52 H 4.26 L 5.46,40 H 6.18 Z M 22.08,40 V 24.24 h -0.66 l -3.88,7.22 -2.58,-4.8 -0.58,0.32 3.16,5.86 3.9,-7.28 V 40 Z m -8.44,0 V 25.6 l 0.16,0.3 0.58,-0.3 -0.74,-1.36 H 13 V 40 Z m 11.6,-5.84 V 24.8 h 4.8 v -0.56 h -5.36 v 9.92 z m 5,5.84 v -0.54 h -5 v -4.14 h 0.8 V 34.78 H 24.68 V 40 Z m 7,-4.78 q 1.28,-0.72 1.96,-2.03 0.68,-1.31 0.68,-2.97 v -0.28 q 0,-2.46 -1.47,-4.08 -1.47,-1.62 -4.19,-1.62 h -1.38 v 6.34 q 0.34,0.02 0.68,0.02 v -5.72 h 0.66 q 2.46,0 3.72,1.43 1.26,1.43 1.26,3.67 v 0.22 q 0,2.22 -1.26,3.64 -1.26,1.42 -3.72,1.42 h -0.66 v 0 h -0.68 v 0.64 q 0.6,0.02 0.8,0.02 h 0.58 q 1.38,0 2.42,-0.42 l 2.48,4.5 h 0.8 z M 42.52,24.24 V 40 h 0.52 V 24.24 Z m 10.06,15.72 0.04,-0.64 q -2.94,-0.2 -4.68,-2.44 -1.66,-2.08 -1.66,-5.02 0,-1.54 0.5,-2.67 0.5,-1.13 1.5,-2.19 2,-2.1 5,-2.1 1.82,0 3.28,0.78 1.46,0.78 2.38,2.18 l 0.48,-0.38 q -1,-1.52 -2.6,-2.38 -1.52,-0.82 -3.44,-0.8 -1.62,0 -3.04,0.55 -1.42,0.55 -2.5,1.69 -1.08,1.16 -1.63,2.4 -0.55,1.24 -0.55,2.92 0.02,3.18 1.82,5.44 1.92,2.42 5.1,2.66 z m 1.22,0.02 q 1.64,-0.1 3,-0.78 1.56,-0.8 2.62,-2.26 l -0.46,-0.4 q -0.96,1.32 -2.42,2.08 -1.26,0.64 -2.76,0.72 z M 67.36,26.14 q 0,0.12 0.71,2.29 0.71,2.17 1.55,4.75 0.84,2.58 2.26,6.82 h 0.86 L 67.44,24.24 H 67.28 L 62.02,40 h 0.82 z M 67,35.52 H 66.28 L 67.48,40 H 68.2 Z M 82.32,24.58 v 11.56 q 0,0.54 0.02,1.2 0.02,0.66 0.02,0.68 -0.04,-0.06 -0.29,-0.65 -0.25,-0.59 -0.49,-1.05 L 81.3,35.78 h -0.72 l 2.2,4.22 h 0.18 V 24.58 Z m -5.62,3.36 0.28,0.54 H 77.7 L 75.48,24.24 H 75.34 V 39.7 h 0.62 V 28.1 q 0,-0.5 -0.02,-1.17 -0.02,-0.67 -0.02,-0.69 0.02,0.06 0.28,0.66 0.26,0.6 0.5,1.04 z M 92.36,40 q 0.88,0 1.64,-0.2 l -0.16,-0.6 q -0.68,0.18 -1.48,0.18 H 91.18 V 24.92 h 1.18 q 1.3,0 2.39,0.51 1.09,0.51 1.88,1.41 0.79,0.9 1.24,2.17 0.45,1.27 0.45,2.79 v 0.42 q 0,1.12 -0.3,2.2 -0.3,1.08 -0.82,1.99 -0.52,0.91 -1.22,1.59 -0.7,0.68 -1.48,0.98 l 0.24,0.58 q 0.88,-0.36 1.64,-1.09 0.76,-0.73 1.33,-1.71 0.57,-0.98 0.9,-2.15 0.33,-1.17 0.33,-2.39 V 31.8 q 0,-1.64 -0.5,-3.01 -0.5,-1.37 -1.38,-2.37 -0.88,-1 -2.08,-1.56 -1.2,-0.56 -2.62,-0.56 h -1.8 V 40 Z m 9.38,-15.76 V 40 h 0.52 V 24.24 Z m 4.5,0 h -1.38 v 0.64 h 0.9 0.44 q 2.46,0 3.7,1.42 1.24,1.42 1.24,3.7 v 0.22 q 0,2.24 -1.24,3.66 -1.24,1.42 -3.7,1.42 h -0.64 v 0 h -0.44 -0.22 -0.04 V 40 h 0.7 v -4.04 h 0.68 q 2.76,0 4.19,-1.63 1.43,-1.63 1.43,-4.09 v -0.26 q 0,-2.46 -1.45,-4.1 -1.45,-1.64 -4.17,-1.64 z m 8.88,11.82 V 24.24 h -0.66 V 36.06 Z M 120.5,40 v -0.68 h -5.38 v -1.96 h -0.66 V 40 Z m 9.6,0 q 3.32,0 5.66,-2.34 1.16,-1.14 1.75,-2.46 0.59,-1.32 0.59,-3 0,-3.34 -2.34,-5.64 -2.34,-2.28 -5.78,-2.3 -2.12,0.02 -3.98,1.06 -1.82,1.06 -2.9,2.94 l 0.58,0.32 q 0.98,-1.74 2.66,-2.7 1.66,-0.96 3.64,-0.98 3.2,0.02 5.32,2.14 2.12,2.08 2.14,5.16 0,1.54 -0.54,2.75 -0.54,1.21 -1.58,2.27 -2.14,2.14 -5.22,2.14 -1.92,0 -3.48,-0.82 l -0.3,0.58 q 1.7,0.88 3.78,0.88 z m 19.68,0 V 24.24 h -0.66 l -3.88,7.22 -2.58,-4.8 -0.58,0.32 3.16,5.86 3.9,-7.28 V 40 Z m -8.44,0 V 25.6 l 0.16,0.3 0.58,-0.3 -0.74,-1.36 H 140.7 V 40 Z m 16.38,-13.86 q 0,0.12 0.71,2.29 0.71,2.17 1.55,4.75 0.84,2.58 2.26,6.82 h 0.86 l -5.3,-15.76 h -0.16 L 152.38,40 h 0.82 z m -0.36,9.38 h -0.72 l 1.2,4.48 h 0.72 z m 18.28,-4.5 1.78,1.66 q 0.84,0.78 1.32,1.67 0.48,0.89 0.48,1.79 v 0.26 q 0.02,0.64 -0.16,1.14 h 0.74 q 0.16,-0.54 0.14,-1.12 v -0.28 q 0,-1.08 -0.55,-2.06 -0.55,-0.98 -1.53,-1.92 l -1.72,-1.62 q -0.82,-0.78 -1.35,-1.46 -0.53,-0.68 -0.53,-1.7 v -0.12 q 0,-1.06 0.59,-1.71 0.59,-0.65 1.65,-0.65 0.76,0 1.24,0.23 0.48,0.23 0.98,0.69 l 0.46,-0.52 q -0.56,-0.52 -1.15,-0.78 -0.59,-0.26 -1.53,-0.26 -1.22,0 -2.07,0.79 -0.85,0.79 -0.85,2.19 v 0.16 q 0,1.14 0.57,1.95 0.57,0.81 1.49,1.67 z m 3.88,7.28 h -0.82 q -0.7,1.02 -2.24,1.04 -0.52,0 -0.94,-0.12 v 0.7 q 0.42,0.08 0.94,0.08 1.08,0 1.86,-0.44 0.78,-0.44 1.2,-1.26 z m 8.36,-12.16 q 0,0.12 0.71,2.29 0.71,2.17 1.55,4.75 0.84,2.58 2.26,6.82 h 0.86 l -5.3,-15.76 H 187.8 L 182.54,40 h 0.82 z m -0.36,9.38 H 186.8 L 188,40 h 0.72 z M 201.4,24.5 v -0.26 h -5.86 v 0.64 h 3.38 V 40 h 0.7 V 24.88 h 1.8 q -0.04,-0.32 -0.02,-0.38 z m 0.52,-0.26 v 0.64 h 1.1 v -0.64 z"
       id="path24881"
       inkscape:connector-curvature="0"
       style="fill:#d2ba36;fill-opacity:1" />
  </g>
</svg>
