<?xml version="1.0" encoding="UTF-8" standalone="no"?>
<!-- Created with Inkscape (http://www.inkscape.org/) -->

<svg
   xmlns:dc="http://purl.org/dc/elements/1.1/"
   xmlns:cc="http://creativecommons.org/ns#"
   xmlns:rdf="http://www.w3.org/1999/02/22-rdf-syntax-ns#"
   xmlns:svg="http://www.w3.org/2000/svg"
   xmlns="http://www.w3.org/2000/svg"
   xmlns:sodipodi="http://sodipodi.sourceforge.net/DTD/sodipodi-0.dtd"
   xmlns:inkscape="http://www.inkscape.org/namespaces/inkscape"
   width="210mm"
   height="297mm"
   viewBox="0 0 210 297"
   version="1.1"
   id="svg14623"
   inkscape:version="0.92.2 (5c3e80d, 2017-08-06)"
   sodipodi:docname="guide.svg">
  <defs
     id="defs14617" />
  <sodipodi:namedview
     id="base"
     pagecolor="#ffffff"
     bordercolor="#666666"
     borderopacity="1.0"
     inkscape:pageopacity="0.0"
     inkscape:pageshadow="2"
     inkscape:zoom="0.35"
     inkscape:cx="11.428571"
     inkscape:cy="560"
     inkscape:document-units="mm"
     inkscape:current-layer="layer1"
     showgrid="false"
     inkscape:window-width="1440"
     inkscape:window-height="837"
     inkscape:window-x="-8"
     inkscape:window-y="-8"
     inkscape:window-maximized="1" />
  <metadata
     id="metadata14620">
    <rdf:RDF>
      <cc:Work
         rdf:about="">
        <dc:format>image/svg+xml</dc:format>
        <dc:type
           rdf:resource="http://purl.org/dc/dcmitype/StillImage" />
        <dc:title></dc:title>
      </cc:Work>
    </rdf:RDF>
  </metadata>
  <g
     inkscape:label="Layer 1"
     inkscape:groupmode="layer"
     id="layer1">
    <g
       transform="matrix(0.39526393,0,0,-0.37537893,-62.791184,297.8312)"
       id="g14455">
      <g
         transform="matrix(1.0021547,0,0,0.86900664,406.68259,519.39117)"
         id="g4985">
        <path
           inkscape:connector-curvature="0"
           id="path4987"
           style="fill:#e2a879;fill-opacity:1;fill-rule:nonzero;stroke:none"
           d="m 0,0 v -8.859 c 0,0 9.461,-6.008 19.972,0 V 0 H 3.754 Z" />
      </g>
      <g
         transform="matrix(0.84954732,0,0,0.86900664,466.92451,571.36457)"
         id="g4989">
        <path
           inkscape:connector-curvature="0"
           id="path4991"
           style="fill:#e2a879;fill-opacity:1;fill-rule:nonzero;stroke:none"
           d="m 0,0 c 0,0 -1.275,15.912 6.133,16.712 7.408,0.802 5.545,-31.724 -10.942,-34.381 z" />
      </g>
      <g
         transform="matrix(0.84954732,0,0,0.86900664,364.63085,583.27822)"
         id="g4993">
        <path
           inkscape:connector-curvature="0"
           id="path4995"
           style="fill:#e2a879;fill-opacity:1;fill-rule:nonzero;stroke:none"
           d="m 0,0 c 0,0 -4,-1.201 -3.399,-11.413 0.6,-10.211 8.083,-16.396 8.083,-16.396 v 8.387 c 0,0 -0.676,10.813 -0.876,11.613 C 3.608,-7.008 0,0 0,0" />
      </g>
      <g
         transform="matrix(0.84954732,0,0,0.86900664,364.54955,585.88776)"
         id="g4997">
        <path
           inkscape:connector-curvature="0"
           id="path4999"
           style="fill:#ffcd9f;fill-opacity:1;fill-rule:nonzero;stroke:none"
           d="m 0,0 c 0,0 -0.149,-79.287 62.769,-79.287 53.459,0 59.465,73.881 59.465,73.881 0,0 -8.109,38.743 -8.109,40.545 0,1.802 -15.317,9.911 -17.12,10.511 -1.8,0.601 -45.949,-0.3 -48.051,0 -2.103,0.301 -24.928,-4.204 -28.532,-4.204 -3.604,0 -9.61,-1.802 -10.211,-3.003 C 9.61,37.241 0,0 0,0" />
      </g>
      <g
         style="fill:#475059;fill-opacity:1"
         transform="matrix(0.84954732,0,0,0.86900664,466.92451,571.36457)"
         id="g5001">
        <path
           inkscape:connector-curvature="0"
           id="path5003"
           style="fill:#475059;fill-opacity:1;fill-rule:nonzero;stroke:none"
           d="m 0,0 c 0,0 -3.078,-0.896 -5.881,0 l -6.207,22.119 1.203,3.603 c 0,0 -3.402,18.421 -11.011,24.027 0,0 -16.42,-7.809 -38.443,-7.208 -22.025,0.601 -42.448,6.407 -42.448,6.407 0,0 -5.605,-2.403 -10.811,-18.22 v -8.81 c 0,0 -5.393,-9.409 -6.2,-13.214 0,0 -4.986,10.836 -0.707,35.439 l -4.705,3.804 4.705,0.6 -17.12,14.027 13.754,2.191 c 0,0 -12.953,7.609 -16.557,12.614 -3.604,5.005 -8.809,10.011 -8.809,10.011 0,0 42.848,3.404 46.251,4.605 0,0 -8.26,8.008 -12.74,15.217 0,0 43.774,-8.81 50.982,-11.012 0,0 -9.01,13.414 -12.614,15.617 0,0 35.84,-13.816 58.264,-32.235 0,0 -4.207,14.215 -5.808,18.42 0,0 21.173,-28.833 24.902,-39.444 0,0 12.49,-33.826 0,-58.558" />
      </g>
      <g
         transform="matrix(0.84954732,0,0,0.86900664,396.08067,573.62747)"
         id="g5005">
        <path
           inkscape:connector-curvature="0"
           id="path5007"
           style="fill:#3e3947;fill-opacity:1;fill-rule:nonzero;stroke:none"
           d="m 0,0 c 0,-3.207 -2.062,-5.807 -4.605,-5.807 -2.543,0 -4.605,2.6 -4.605,5.807 0,3.207 2.062,5.806 4.605,5.806 C -2.062,5.806 0,3.207 0,0" />
      </g>
      <g
         transform="matrix(0.84954732,0,0,0.86900664,438.83805,573.62747)"
         id="g5009">
        <path
           inkscape:connector-curvature="0"
           id="path5011"
           style="fill:#3e3947;fill-opacity:1;fill-rule:nonzero;stroke:none"
           d="m 0,0 c 0,-3.207 -2.063,-5.807 -4.605,-5.807 -2.543,0 -4.604,2.6 -4.604,5.807 0,3.207 2.061,5.806 4.604,5.806 C -2.063,5.806 0,3.207 0,0" />
      </g>
      <g
         transform="matrix(0.84954732,0,0,0.86900664,394.89011,589.99008)"
         id="g5013">
        <path
           inkscape:connector-curvature="0"
           id="path5015"
           style="fill:#735360;fill-opacity:1;fill-rule:nonzero;stroke:none"
           d="m 0,0 c 0,0 -2.485,2.403 -5.681,1.802 -3.194,-0.6 -5.68,-4.204 -5.68,-4.204 0,0 0.473,6.907 6.391,7.508 0,0 2.13,0.4 4.97,-1.002 z" />
      </g>
      <g
         transform="matrix(0.84954732,0,0,0.86900664,429.95102,595.28346)"
         id="g5017">
        <path
           inkscape:connector-curvature="0"
           id="path5019"
           style="fill:#735360;fill-opacity:1;fill-rule:nonzero;stroke:none"
           d="m 0,0 v -5.105 c 0,0 7.408,5.405 13.916,-2.303 0,0 -1.102,11.112 -13.916,7.408" />
      </g>
      <g
         transform="matrix(0.84954732,0,0,0.86900664,405.89116,561.78986)"
         id="g5021">
        <path
           inkscape:connector-curvature="0"
           id="path5023"
           style="fill:#e2a879;fill-opacity:1;fill-rule:nonzero;stroke:none"
           d="m 0,0 c 0,0 -5.617,-7.107 2.693,-12.813 0,0 -8.532,-0.563 -9.516,5.605 C -7.925,-0.3 0,0 0,0" />
      </g>
      <g
         transform="matrix(0.84954732,0,0,0.86900664,398.48327,544.47759)"
         id="g5025">
        <path
           inkscape:connector-curvature="0"
           id="path5027"
           style="fill:#fdf5ed;fill-opacity:1;fill-rule:nonzero;stroke:none"
           d="m 0,0 c 0,0 0.066,-1.796 0.838,-4.211 6.239,-1.679 24.449,-5.484 40.47,1.849 1.488,4.242 1.588,7.768 1.588,7.768 C 26.126,-6.607 0,0 0,0" />
      </g>
      <g
         transform="matrix(0.84954732,0,0,0.86900664,399.19553,540.81786)"
         id="g5029">
        <path
           inkscape:connector-curvature="0"
           id="path5031"
           style="fill:#9e005d;fill-opacity:1;fill-rule:nonzero;stroke:none"
           d="m 0,0 c 0.692,-2.165 1.966,-4.824 4.263,-7.145 2.073,2.14 5.063,3.74 8.299,4.937 C 7.034,-1.713 2.531,-0.682 0,0" />
      </g>
      <g
         transform="matrix(0.84954732,0,0,0.86900664,416.70419,529.86186)"
         id="g5033">
        <path
           inkscape:connector-curvature="0"
           id="path5035"
           style="fill:#da727e;fill-opacity:1;fill-rule:nonzero;stroke:none"
           d="M 0,0 C 12.433,0.359 17.663,8.191 19.86,14.457 10.341,10.099 0.048,9.674 -8.048,10.399 -11.283,9.203 -14.273,7.603 -16.346,5.462 -13.213,2.297 -8.167,-0.235 0,0" />
      </g>
      <g
         transform="matrix(0.84954732,0,0,0.86900664,412.94096,526.20847)"
         id="g5037">
        <path
           inkscape:connector-curvature="0"
           id="path5039"
           style="fill:#e2a879;fill-opacity:1;fill-rule:nonzero;stroke:none"
           d="M 0,0 C 0,0 7.31,-2.202 11.915,0.401 11.915,0.401 7.009,-5.607 0,0" />
      </g>
      <g
         transform="matrix(0.84954732,0,0,0.86900664,392.1685,575.87341)"
         id="g5361">
        <path
           inkscape:connector-curvature="0"
           id="path5363"
           style="fill:#ffffff;fill-opacity:1;fill-rule:nonzero;stroke:none"
           d="m 0,0 c 0,-0.897 -0.644,-1.625 -1.437,-1.625 -0.794,0 -1.438,0.728 -1.438,1.625 0,0.897 0.644,1.625 1.438,1.625 C -0.644,1.625 0,0.897 0,0" />
      </g>
      <g
         transform="matrix(0.84954732,0,0,0.86900664,434.79768,575.87341)"
         id="g5365">
        <path
           inkscape:connector-curvature="0"
           id="path5367"
           style="fill:#ffffff;fill-opacity:1;fill-rule:nonzero;stroke:none"
           d="m 0,0 c 0,-0.897 -0.644,-1.625 -1.437,-1.625 -0.794,0 -1.438,0.728 -1.438,1.625 0,0.897 0.644,1.625 1.438,1.625 C -0.644,1.625 0,0.897 0,0" />
      </g>
      <g
         transform="translate(390.153,267.4531)"
         id="g7231">
        <path
           inkscape:connector-curvature="0"
           id="path7233"
           style="fill:#f6d6ce;fill-opacity:1;fill-rule:evenodd;stroke:none"
           d="m 0,0 c 2.137,-27.179 -0.751,-115.668 11.458,-102.095 9.156,10.18 11.847,64.153 13.409,78.534 C 29.86,22.417 -6.191,78.71 0,0" />
      </g>
      <g
         transform="translate(444.1787,267.4531)"
         id="g7235">
        <path
           inkscape:connector-curvature="0"
           id="path7237"
           style="fill:#f6d6ce;fill-opacity:1;fill-rule:evenodd;stroke:none"
           d="m 0,0 c -2.137,-27.179 0.75,-115.668 -11.458,-102.095 -9.156,10.179 -8.347,63.716 -9.908,78.096 C -26.359,21.979 6.191,78.71 0,0" />
      </g>
      <g
         transform="translate(407.4675,161.41129)"
         id="g7243">
        <path
           inkscape:connector-curvature="0"
           id="path7245"
           style="fill:#2d333b;fill-opacity:1;fill-rule:evenodd;stroke:none"
           d="m 0,0 c 0.38,-4.239 0.553,-7.984 -0.302,-10.091 -2.163,-5.326 -16.844,-6.585 -23.258,-13.518 -5.973,-6.456 -27.523,-5.904 -29.153,1.994 -0.171,0.825 -0.337,3.71 0.232,4.564 1.727,2.59 6.881,3.22 12.338,5.63 2.307,1.018 8.031,6.443 14.574,11.218 0.119,0.088 0.239,0.177 0.358,0.266 1.357,0.047 2.613,-0.217 3.779,-0.839 3.045,-1.624 2.436,-3.653 5.886,-4.262 3.451,-0.609 11.773,-0.406 13.6,4.262 C -1.277,-0.537 -0.63,-0.276 0,0" />
      </g>
      <g
         transform="translate(406.9113,184.36767)"
         id="g7247">
        <path
           inkscape:connector-curvature="0"
           id="path7249"
           style="fill:#f6d6ce;fill-opacity:1;fill-rule:evenodd;stroke:none"
           d="m 0,0 c -2.282,-7.768 2.417,-24.051 0.254,-29.377 -2.163,-5.325 -16.844,-6.585 -23.259,-13.518 -5.972,-6.456 -27.522,-5.904 -29.152,1.995 -0.686,3.328 5.313,6.99 12.57,10.193 2.307,1.018 9.098,5.615 15.64,10.39 6.297,4.596 11.48,13.947 11.285,17.78 C -13.206,8.121 2.681,9.127 0,0" />
      </g>
      <g
         transform="translate(406.5378,175.83342)"
         id="g7251">
        <path
           inkscape:connector-curvature="0"
           id="path7253"
           style="fill:#475059;fill-opacity:1;fill-rule:evenodd;stroke:none"
           d="m 0,0 c 1.922,-6.119 1.482,-18.736 0.628,-20.842 -2.163,-5.325 -16.845,-6.586 -23.259,-13.518 -5.972,-6.456 -26.972,-5.984 -28.602,1.915 -0.686,3.328 4.408,7.069 11.665,10.272 1.387,0.612 14.469,7.935 20.68,15.271 1.431,1.69 0.22,4.736 -0.6,6.2 -1.252,2.235 10.872,4.698 11.157,0.934 0.072,-0.953 0.721,-2.52 0.656,-3.916 C 0.49,-4.687 -0.505,-1.759 0,0" />
      </g>
      <g
         transform="translate(399.40091,172.05942)"
         id="g7255">
        <path
           inkscape:connector-curvature="0"
           id="path7257"
           style="fill:none;stroke:#2d333b;stroke-width:1.20000005;stroke-linecap:butt;stroke-linejoin:miter;stroke-miterlimit:22.9260006;stroke-dasharray:none;stroke-opacity:1"
           d="m 0,0 c -1.512,-4.537 -12.07,-16.419 -16.872,-20.066 -10.903,-8.279 -19.336,-1.063 -15.755,1.006" />
      </g>
      <g
         transform="translate(383.7531,155.49027)"
         id="g7259">
        <path
           inkscape:connector-curvature="0"
           id="path7261"
           style="fill:none;stroke:#2d333b;stroke-width:1.91999996;stroke-linecap:round;stroke-linejoin:round;stroke-miterlimit:22.9260006;stroke-dasharray:none;stroke-opacity:1"
           d="M 0,0 -3.224,6.916" />
      </g>
      <g
         transform="translate(386.8608,158.92017)"
         id="g7263">
        <path
           inkscape:connector-curvature="0"
           id="path7265"
           style="fill:none;stroke:#2d333b;stroke-width:1.91999996;stroke-linecap:round;stroke-linejoin:round;stroke-miterlimit:22.9260006;stroke-dasharray:none;stroke-opacity:1"
           d="M 0,0 -3.224,6.916" />
      </g>
      <g
         transform="translate(389.8235,161.88717)"
         id="g7267">
        <path
           inkscape:connector-curvature="0"
           id="path7269"
           style="fill:none;stroke:#2d333b;stroke-width:1.91999996;stroke-linecap:round;stroke-linejoin:round;stroke-miterlimit:22.9260006;stroke-dasharray:none;stroke-opacity:1"
           d="M 0,0 -3.149,6.309" />
      </g>
      <g
         transform="translate(376.3941,159.60222)"
         id="g7271">
        <path
           inkscape:connector-curvature="0"
           id="path7273"
           style="fill:none;stroke:#2d333b;stroke-width:1.91999996;stroke-linecap:round;stroke-linejoin:round;stroke-miterlimit:22.9260006;stroke-dasharray:none;stroke-opacity:1"
           d="M 0,0 9.52,-0.841" />
      </g>
      <g
         transform="translate(380.0497,162.69882)"
         id="g7275">
        <path
           inkscape:connector-curvature="0"
           id="path7277"
           style="fill:none;stroke:#2d333b;stroke-width:1.91999996;stroke-linecap:round;stroke-linejoin:round;stroke-miterlimit:22.9260006;stroke-dasharray:none;stroke-opacity:1"
           d="M 0,0 9.52,-0.84" />
      </g>
      <g
         transform="translate(383.1497,165.58249)"
         id="g7279">
        <path
           inkscape:connector-curvature="0"
           id="path7281"
           style="fill:none;stroke:#2d333b;stroke-width:1.91999996;stroke-linecap:round;stroke-linejoin:round;stroke-miterlimit:22.9260006;stroke-dasharray:none;stroke-opacity:1"
           d="M 0,0 9.677,0.024" />
      </g>
      <g
         transform="translate(379.3716,153.47682)"
         id="g7283">
        <path
           inkscape:connector-curvature="0"
           id="path7285"
           style="fill:none;stroke:#2d333b;stroke-width:1.91999996;stroke-linecap:round;stroke-linejoin:round;stroke-miterlimit:22.9260006;stroke-dasharray:none;stroke-opacity:1"
           d="M 0,0 -3.106,6.206" />
      </g>
      <g
         transform="translate(372.4861,156.64167)"
         id="g7287">
        <path
           inkscape:connector-curvature="0"
           id="path7289"
           style="fill:none;stroke:#2d333b;stroke-width:1.91999996;stroke-linecap:round;stroke-linejoin:round;stroke-miterlimit:22.9260006;stroke-dasharray:none;stroke-opacity:1"
           d="M 0,0 10.586,-1.314" />
      </g>
      <g
         transform="translate(367.7708,154.20529)"
         id="g7291">
        <path
           inkscape:connector-curvature="0"
           id="path7293"
           style="fill:none;stroke:#2d333b;stroke-width:1.91999996;stroke-linecap:round;stroke-linejoin:round;stroke-miterlimit:22.9260006;stroke-dasharray:none;stroke-opacity:1"
           d="M 0,0 11.922,-1.157" />
      </g>
      <g
         transform="translate(374.8918,150.17592)"
         id="g7295">
        <path
           inkscape:connector-curvature="0"
           id="path7297"
           style="fill:none;stroke:#2d333b;stroke-width:1.91999996;stroke-linecap:round;stroke-linejoin:round;stroke-miterlimit:22.9260006;stroke-dasharray:none;stroke-opacity:1"
           d="M 0,0 -2.477,6.441" />
      </g>
      <g
         transform="translate(369.0682,137.04717)"
         id="g7299">
        <path
           inkscape:connector-curvature="0"
           id="path7301"
           style="fill:#2d333b;fill-opacity:1;fill-rule:evenodd;stroke:none"
           d="m 0,0 c -7.619,-0.895 -14.871,0.401 -14.314,6.42 0.157,1.694 0.988,3.416 3.314,5.149 0.089,0.003 0.177,0.004 0.266,0.004 C -4.891,11.573 -0.139,6.418 0,0" />
      </g>
      <g
         transform="translate(407.9333,167.77279)"
         id="g7303">
        <path
           inkscape:connector-curvature="0"
           id="path7305"
           style="fill:#2d333b;fill-opacity:1;fill-rule:evenodd;stroke:none"
           d="m 0,0 c 0.986,-5.594 0.21,-12.859 -0.367,-14.283 -0.651,-1.604 -2.755,-3.014 -5.196,-2.47 C -1.617,-13.194 -0.308,-3.719 0,0" />
      </g>
      <g
         transform="translate(427.274,161.41129)"
         id="g7307">
        <path
           inkscape:connector-curvature="0"
           id="path7309"
           style="fill:#2d333b;fill-opacity:1;fill-rule:evenodd;stroke:none"
           d="m 0,0 c -0.38,-4.239 -0.553,-7.984 0.302,-10.091 2.163,-5.326 16.844,-6.585 23.259,-13.518 5.972,-6.456 27.522,-5.904 29.152,1.994 0.171,0.825 0.337,3.71 -0.232,4.564 -1.727,2.59 -6.881,3.22 -12.338,5.63 -2.307,1.018 -8.031,6.443 -14.574,11.218 C 25.45,-0.115 25.33,-0.026 25.211,0.063 23.854,0.11 22.598,-0.154 21.432,-0.776 18.387,-2.4 18.996,-4.429 15.546,-5.038 12.095,-5.647 3.773,-5.444 1.946,-0.776 1.277,-0.537 0.63,-0.276 0,0" />
      </g>
      <g
         transform="translate(428.2039,175.83342)"
         id="g7311">
        <path
           inkscape:connector-curvature="0"
           id="path7313"
           style="fill:#475059;fill-opacity:1;fill-rule:evenodd;stroke:none"
           d="m 0,0 c -1.922,-6.119 -1.482,-18.736 -0.627,-20.842 2.162,-5.325 16.844,-6.586 23.258,-13.518 5.972,-6.456 26.972,-5.984 28.601,1.915 0.687,3.328 -4.407,7.069 -11.664,10.272 -1.454,0.642 -15.764,8.66 -21.533,16.337 -1.001,1.332 0.708,5.331 1.065,6.607 C 19.813,3.315 8.035,3.712 7.281,0.466 7.065,-0.462 6.762,-2.249 7.675,-3.684 -0.49,-4.687 0.504,-1.759 0,0" />
      </g>
      <g
         transform="translate(435.3406,172.05942)"
         id="g7315">
        <path
           inkscape:connector-curvature="0"
           id="path7317"
           style="fill:none;stroke:#2d333b;stroke-width:1.20000005;stroke-linecap:butt;stroke-linejoin:miter;stroke-miterlimit:22.9260006;stroke-dasharray:none;stroke-opacity:1"
           d="m 0,0 c 1.512,-4.537 12.07,-16.419 16.872,-20.066 10.904,-8.279 19.336,-1.063 15.755,1.006" />
      </g>
      <g
         transform="translate(450.9884,155.49027)"
         id="g7319">
        <path
           inkscape:connector-curvature="0"
           id="path7321"
           style="fill:none;stroke:#2d333b;stroke-width:1.91999996;stroke-linecap:round;stroke-linejoin:round;stroke-miterlimit:22.9260006;stroke-dasharray:none;stroke-opacity:1"
           d="M 0,0 3.224,6.916" />
      </g>
      <g
         transform="translate(447.881,158.92017)"
         id="g7323">
        <path
           inkscape:connector-curvature="0"
           id="path7325"
           style="fill:none;stroke:#2d333b;stroke-width:1.91999996;stroke-linecap:round;stroke-linejoin:round;stroke-miterlimit:22.9260006;stroke-dasharray:none;stroke-opacity:1"
           d="M 0,0 3.224,6.916" />
      </g>
      <g
         transform="translate(444.918,161.88717)"
         id="g7327">
        <path
           inkscape:connector-curvature="0"
           id="path7329"
           style="fill:none;stroke:#2d333b;stroke-width:1.91999996;stroke-linecap:round;stroke-linejoin:round;stroke-miterlimit:22.9260006;stroke-dasharray:none;stroke-opacity:1"
           d="M 0,0 3.149,6.309" />
      </g>
      <g
         transform="translate(458.3474,159.60222)"
         id="g7331">
        <path
           inkscape:connector-curvature="0"
           id="path7333"
           style="fill:none;stroke:#2d333b;stroke-width:1.91999996;stroke-linecap:round;stroke-linejoin:round;stroke-miterlimit:22.9260006;stroke-dasharray:none;stroke-opacity:1"
           d="M 0,0 -9.52,-0.841" />
      </g>
      <g
         transform="translate(454.6918,162.69882)"
         id="g7335">
        <path
           inkscape:connector-curvature="0"
           id="path7337"
           style="fill:none;stroke:#2d333b;stroke-width:1.91999996;stroke-linecap:round;stroke-linejoin:round;stroke-miterlimit:22.9260006;stroke-dasharray:none;stroke-opacity:1"
           d="M 0,0 -9.52,-0.84" />
      </g>
      <g
         transform="translate(451.592,165.58249)"
         id="g7339">
        <path
           inkscape:connector-curvature="0"
           id="path7341"
           style="fill:none;stroke:#2d333b;stroke-width:1.91999996;stroke-linecap:round;stroke-linejoin:round;stroke-miterlimit:22.9260006;stroke-dasharray:none;stroke-opacity:1"
           d="M 0,0 -9.678,0.024" />
      </g>
      <g
         transform="translate(455.3699,153.47682)"
         id="g7343">
        <path
           inkscape:connector-curvature="0"
           id="path7345"
           style="fill:none;stroke:#2d333b;stroke-width:1.91999996;stroke-linecap:round;stroke-linejoin:round;stroke-miterlimit:22.9260006;stroke-dasharray:none;stroke-opacity:1"
           d="M 0,0 3.106,6.206" />
      </g>
      <g
         transform="translate(462.2556,156.64167)"
         id="g7347">
        <path
           inkscape:connector-curvature="0"
           id="path7349"
           style="fill:none;stroke:#2d333b;stroke-width:1.91999996;stroke-linecap:round;stroke-linejoin:round;stroke-miterlimit:22.9260006;stroke-dasharray:none;stroke-opacity:1"
           d="M 0,0 -10.586,-1.314" />
      </g>
      <g
         transform="translate(466.9707,154.20529)"
         id="g7351">
        <path
           inkscape:connector-curvature="0"
           id="path7353"
           style="fill:none;stroke:#2d333b;stroke-width:1.91999996;stroke-linecap:round;stroke-linejoin:round;stroke-miterlimit:22.9260006;stroke-dasharray:none;stroke-opacity:1"
           d="M 0,0 -11.922,-1.157" />
      </g>
      <g
         transform="translate(459.8499,150.17592)"
         id="g7355">
        <path
           inkscape:connector-curvature="0"
           id="path7357"
           style="fill:none;stroke:#2d333b;stroke-width:1.91999996;stroke-linecap:round;stroke-linejoin:round;stroke-miterlimit:22.9260006;stroke-dasharray:none;stroke-opacity:1"
           d="M 0,0 2.477,6.441" />
      </g>
      <g
         transform="translate(465.67329,137.04717)"
         id="g7359">
        <path
           inkscape:connector-curvature="0"
           id="path7361"
           style="fill:#2d333b;fill-opacity:1;fill-rule:evenodd;stroke:none"
           d="M 0,0 C 7.619,-0.895 14.871,0.401 14.314,6.42 14.157,8.114 13.326,9.836 11,11.569 10.911,11.572 10.823,11.573 10.734,11.573 4.891,11.573 0.139,6.418 0,0" />
      </g>
      <g
         transform="translate(426.8084,167.77279)"
         id="g7363">
        <path
           inkscape:connector-curvature="0"
           id="path7365"
           style="fill:#2d333b;fill-opacity:1;fill-rule:evenodd;stroke:none"
           d="m 0,0 c -0.987,-5.594 -0.21,-12.859 0.367,-14.283 0.651,-1.604 2.754,-3.014 5.196,-2.47 C 1.618,-13.194 0.307,-3.719 0,0" />
      </g>
      <g
         style="fill:#e2a879;fill-opacity:1"
         transform="translate(476.0085,469.2776)"
         id="g7367">
        <path
           inkscape:connector-curvature="0"
           id="path7369"
           style="fill:#e2a879;fill-opacity:1;fill-rule:evenodd;stroke:none"
           d="M 0,0 C 6.567,-25.476 9.608,-44.513 1.982,-46.863 -5.644,-49.213 -12.26,-28.527 -20.75,-8.828 -45.805,49.312 -13.714,53.206 0,0" />
      </g>
      <g
         style="fill:#e2a879;fill-opacity:1"
         transform="translate(416.7502,353.73892)"
         id="g7371">
        <path
           inkscape:connector-curvature="0"
           id="path7373"
           style="fill:#e2a879;fill-opacity:1;fill-rule:evenodd;stroke:none"
           d="m 0,0 c -33.384,0 -41.444,33.258 -31.558,59.006 4.287,11.163 1.368,32.52 -4.723,51.012 -2.976,9.035 -8.329,15.771 -10.84,23.426 -11.812,35.997 105.702,33.544 95.089,1.197 C 45.333,126.614 39.222,119.246 36.083,109.572 30.099,91.134 27.917,69.904 32.101,59.005 42.824,31.078 36.898,0 0,0" />
      </g>
      <g
         transform="translate(379.2198,374.2915)"
         id="g7375">
        <path
           inkscape:connector-curvature="0"
           id="path7377"
           style="fill:#f6d6ce;fill-opacity:1;fill-rule:evenodd;stroke:none"
           d="m 0,0 c -0.289,-69.732 11.217,-102.924 22.977,-102.924 11.759,0 13.428,65.292 11.825,89.422 C 29.905,60.191 0.243,58.517 0,0" />
      </g>
      <g
         transform="translate(454.8308,372.6012)"
         id="g7379">
        <path
           inkscape:connector-curvature="0"
           id="path7381"
           style="fill:#f6d6ce;fill-opacity:1;fill-rule:evenodd;stroke:none"
           d="m 0,0 c -0.009,-67.776 -10.936,-101.234 -22.696,-101.234 -11.759,0 -13.427,65.292 -11.825,89.423 C -29.624,61.881 0.007,58.517 0,0" />
      </g>
      <g
         style="fill:#e2a879;fill-opacity:1"
         transform="translate(358.8457,468.1287)"
         id="g7383">
        <path
           inkscape:connector-curvature="0"
           id="path7385"
           style="fill:#e2a879;fill-opacity:1;fill-rule:evenodd;stroke:none"
           d="m 0,0 c -7.906,-24.327 -10.757,-43.364 -3.131,-45.714 7.627,-2.35 16.321,16.258 24.81,35.957 C 46.734,48.382 16.982,52.255 0,0" />
      </g>
      <g
         transform="translate(379.0459,389.9427)"
         id="g7387">
        <path
           inkscape:connector-curvature="0"
           id="path7389"
           style="fill:#2c5380;fill-opacity:1;fill-rule:evenodd;stroke:none"
           d="m 0,0 c -0.306,-14.977 -1.38,-39.696 0.917,-70.299 2.298,-30.603 5.921,-36.028 6.698,-59.257 0.211,-6.285 0.065,-74.332 0.124,-84.086 7.454,-2.069 17.711,-3.384 25.165,-1.507 0.645,6.023 1.63,15.912 2.922,31.837 1.291,15.924 0.894,48.308 1.555,67.024 0.551,15.635 0.241,30.007 1.334,70.096 0.896,-34.898 1.008,-47.571 2.258,-72.03 1.038,-20.321 -0.266,-44.7 0.916,-64.912 1.183,-20.213 2.45,-31.634 2.45,-31.634 8.166,-1.282 17.333,-1.124 25.5,1.541 -0.237,28.782 -0.796,53.046 0.176,85.538 0.779,26.01 0.667,21.036 3.877,54.708 C 77.103,-39.309 75.115,-14.977 74.809,0 64.663,11.77 10.147,11.77 0,0" />
      </g>
      <g
         transform="translate(418.0887,343.3082)"
         id="g7391">
        <path
           inkscape:connector-curvature="0"
           id="path7393"
           style="fill:none;stroke:#1b3b63;stroke-width:2.4000001;stroke-linecap:butt;stroke-linejoin:miter;stroke-miterlimit:22.9260006;stroke-dasharray:none;stroke-opacity:1"
           d="m 0,0 c 4.523,-19.134 5.982,-53.913 6.958,-74.449 0.975,-20.537 4.681,-83.499 4.681,-94.979" />
      </g>
      <g
         transform="translate(413.6201,383.1191)"
         id="g7395">
        <path
           inkscape:connector-curvature="0"
           id="path7397"
           style="fill:none;stroke:#1b3b63;stroke-width:2.4000001;stroke-linecap:butt;stroke-linejoin:miter;stroke-miterlimit:22.9260006;stroke-dasharray:none;stroke-opacity:1"
           d="m 0,0 c -0.299,-5.118 -1.794,-30.241 1.196,-30.707 2.989,-0.465 7.173,-0.465 7.173,-0.465" />
      </g>
      <g
         transform="translate(418.0887,343.3082)"
         id="g7399">
        <path
           inkscape:connector-curvature="0"
           id="path7401"
           style="fill:none;stroke:#1b3b63;stroke-width:2.4000001;stroke-linecap:butt;stroke-linejoin:miter;stroke-miterlimit:22.9260006;stroke-dasharray:none;stroke-opacity:1"
           d="m 0,0 c -4.523,-19.134 -6.42,-55.663 -6.958,-74.449 -0.538,-18.786 -5.535,-83.285 -5.535,-94.766" />
      </g>
      <g
         transform="translate(385.47461,177.19369)"
         id="g7403">
        <path
           inkscape:connector-curvature="0"
           id="path7405"
           style="fill:#6484ac;fill-opacity:1;fill-rule:evenodd;stroke:none"
           d="m 0,0 c 8.382,-1.871 18.275,-2.668 26.494,-1.947 0.529,0.046 0.934,-0.548 0.898,-1.129 -0.201,-3.26 -0.402,-6.52 -0.604,-9.78 -0.035,-0.581 -0.5,-0.929 -1.028,-0.985 -8.401,-0.899 -18.289,-0.325 -26.494,1.947 -0.515,0.143 -0.934,0.548 -0.898,1.129 0.201,3.26 0.402,6.52 0.604,9.779 C -0.992,-0.404 -0.52,0.116 0,0" />
      </g>
      <g
         transform="translate(480.3522,457.7128)"
         id="g7407">
        <path
           inkscape:connector-curvature="0"
           id="path7409"
           style="fill:#ffffff;fill-opacity:1;fill-rule:evenodd;stroke:none"
           d="m 0,0 c -7.02,-6.194 -14.773,-8.718 -23.112,-8.322 -18.69,45.311 -9.842,62.635 1.992,55.754 C -12.948,42.68 -4.318,17.096 0,0" />
      </g>
      <g
         transform="translate(376.5966,393.0489)"
         id="g7415">
        <path
           inkscape:connector-curvature="0"
           id="path7417"
           style="fill:#ffffff;fill-opacity:1;fill-rule:evenodd;stroke:none"
           d="M 0,0 C 0.583,4.689 5.368,20.369 6.928,24.885 10.382,34.888 9.374,52.93 4.996,68.49 2.037,79.01 -3.39,86.92 -6.478,96.092 c -3.74,14.435 10.524,22.903 33.025,24.71 1.686,-6.407 5.455,-21.54 13.415,-29.322 7.432,7.367 12.955,22.285 14.488,29.447 23,-1.884 37.603,-11.03 34.161,-23.669 C 86.488,89.46 81.368,90.036 78.282,80.812 72.208,62.661 75.374,39.421 76.268,25.817 76.615,20.523 80.377,4.927 80.943,-0.029 62.129,-10.796 22.153,-8.986 0,0" />
      </g>
      <g
         transform="translate(400.50821,514.162)"
         id="g7495">
        <path
           inkscape:connector-curvature="0"
           id="path7497"
           style="fill:#475059;fill-opacity:1;fill-rule:evenodd;stroke:none"
           d="m 0,0 c 0.218,-24.173 3.354,-47.617 17.421,-68.328 l 0.014,-60.481 c -9.391,-12.057 -30.789,-10.46 -40.633,-1.623 2.445,18.215 6.455,54.332 4.743,75.645 0,0 5.599,-3.97 7.945,12.433 2.347,16.403 0.73,40.368 0.73,40.368 z" />
      </g>
      <g
         transform="translate(434.2427,514.162)"
         id="g7499">
        <path
           inkscape:connector-curvature="0"
           id="path7501"
           style="fill:#475059;fill-opacity:1;fill-rule:evenodd;stroke:none"
           d="m 0,0 c -1.34,-23.235 -5.974,-46.609 -17.421,-68.328 l -0.194,-60.481 c 9.391,-12.057 30.595,-8.903 40.438,-0.066 1.129,18.484 -4.602,53.716 -4.499,75.029 0,0 -5.599,-1.415 -7.814,11.492 -2.216,12.906 -0.73,40.368 -0.73,40.368 z" />
      </g>
      <g
         style="fill:#e2a879;fill-opacity:1"
         transform="translate(472.91799,407.5827)"
         id="g7503">
        <path
           inkscape:connector-curvature="0"
           id="path7505"
           style="fill:#e2a879;fill-opacity:1;fill-rule:evenodd;stroke:none"
           d="m 0,0 c -9.225,-15.326 -20.203,-35.434 -24.68,-32.187 -3.887,2.819 5.295,25.492 10.461,38.506 C -0.798,40.134 12.007,36.256 8.776,19.127 7.777,13.834 4.237,7.038 0,0" />
      </g>
      <g
         style="fill:#e2a879;fill-opacity:1"
         transform="translate(360.7874,407.5827)"
         id="g7507">
        <path
           inkscape:connector-curvature="0"
           id="path7509"
           style="fill:#e2a879;fill-opacity:1;fill-rule:evenodd;stroke:none"
           d="M 0,0 C 9.234,-15.32 20.203,-35.434 24.68,-32.187 28.567,-29.368 19.384,-6.695 14.219,6.319 0.536,40.797 -12.568,36.701 -8.655,18.722 -7.549,13.64 -3.944,6.544 0,0" />
      </g>
      <g
         style="fill:#e2a879;fill-opacity:1"
         transform="translate(368.6127,394.4674)"
         id="g7511">
        <path
           inkscape:connector-curvature="0"
           id="path7513"
           style="fill:#e2a879;fill-opacity:1;fill-rule:evenodd;stroke:none"
           d="m 0,0 c -3.291,5.505 10.42,9.459 11.995,5.026 2.338,-6.579 15.976,-11.554 18.115,-14.757 3.247,-4.866 -9.452,2.727 -8.275,0.203 1.514,-3.243 13.666,-12.736 15.176,-16.779 1.51,-4.042 -15.682,11.37 -11.559,5.606 4.122,-5.764 7.29,-8.004 7.052,-10.971 -0.175,-2.174 -12.36,13.388 -10.539,7.954 1.504,-4.489 3.835,-7.179 3.357,-9.643 -0.625,-3.213 -12.107,15.57 -10.994,11.734 0.873,-3.006 4.409,-6.586 4.011,-8.422 C 17.292,-34.875 5.185,-8.673 0,0" />
      </g>
      <g
         transform="translate(379.6844,370.5557)"
         id="g7515">
        <path
           inkscape:connector-curvature="0"
           id="path7517"
           style="fill:#2c5380;fill-opacity:1;fill-rule:evenodd;stroke:none"
           d="M 0,0 13.207,13.207 33.318,1.501 11.706,-25.214 Z" />
      </g>
      <g
         style="fill:#e2a879;fill-opacity:1"
         transform="translate(461.2251,396.0938)"
         id="g7519">
        <path
           inkscape:connector-curvature="0"
           id="path7521"
           style="fill:#e2a879;fill-opacity:1;fill-rule:evenodd;stroke:none"
           d="m 0,0 c -0.704,1.7 -6.944,6.779 -8.066,3.565 -3.093,-8.857 -17.372,-11.347 -19.759,-14.923 -3.247,-4.865 9.452,2.728 8.275,0.204 -1.514,-3.243 -13.666,-12.737 -15.176,-16.779 -1.51,-4.043 15.682,11.37 11.559,5.606 -4.122,-5.764 -7.289,-8.004 -7.051,-10.972 0.174,-2.173 12.359,13.389 10.538,7.955 -1.504,-4.49 -3.835,-7.18 -3.357,-9.644 0.625,-3.213 12.107,15.571 10.994,11.735 -0.872,-3.007 -4.41,-6.587 -4.011,-8.422 0.888,-4.095 11.566,17.206 18.211,27.243 C 3.307,-2.694 0.587,-1.414 0,0" />
      </g>
      <g
         transform="translate(452.4386,370.5557)"
         id="g7523">
        <path
           inkscape:connector-curvature="0"
           id="path7525"
           style="fill:#2c5380;fill-opacity:1;fill-rule:evenodd;stroke:none"
           d="M 0,0 -13.207,13.207 -33.318,1.501 -11.706,-25.214 Z" />
      </g>
      <g
         transform="translate(354.5634,457.7128)"
         id="g7527">
        <path
           inkscape:connector-curvature="0"
           id="path7529"
           style="fill:#ffffff;fill-opacity:1;fill-rule:evenodd;stroke:none"
           d="M 0,0 C 5.542,-5.656 13.614,-7.938 23.112,-8.322 43.063,40.046 32.837,56.688 19.836,45.905 12.246,39.61 6.842,21.037 0,0" />
      </g>
      <g
         transform="translate(449.4575,177.45649)"
         id="g7531">
        <path
           inkscape:connector-curvature="0"
           id="path7533"
           style="fill:#6484ac;fill-opacity:1;fill-rule:evenodd;stroke:none"
           d="m 0,0 c -8.382,-1.871 -18.275,-2.668 -26.494,-1.947 -0.529,0.046 -0.934,-0.548 -0.898,-1.129 0.201,-3.26 0.402,-6.52 0.604,-9.78 0.035,-0.581 0.5,-0.929 1.028,-0.985 8.401,-0.899 18.289,-0.325 26.494,1.947 0.515,0.143 0.934,0.548 0.898,1.129 -0.201,3.26 -0.402,6.52 -0.604,9.779 C 0.992,-0.404 0.52,0.116 0,0" />
      </g>
      <g
         transform="translate(417.5447,384.7519)"
         id="g7535">
        <path
           inkscape:connector-curvature="0"
           id="path7537"
           style="fill:#2d333b;fill-opacity:1;fill-rule:evenodd;stroke:none"
           d="M 0,0 C -7.733,5.973 -3.963,46.36 -0.162,62.666 -1.009,46.925 -2.852,7.158 0,0" />
      </g>
      <path
         inkscape:connector-curvature="0"
         id="path7541"
         style="fill:#e5e5e5;fill-opacity:1;fill-rule:evenodd;stroke:none;stroke-width:0.99999994"
         d="m 416.5982,483.185 c 5.966,10.046 9.882,29.75901 10.10201,37.66101 C 437.3152,516.893 446.6502,504.82 447.8582,494.116 c -4.582,5.85 -8.095,10.114 -12.27,8.8 -3.55699,-1.119 -14.851,-15.111 -18.99,-19.731" />
      <g
         transform="translate(416.5982,483.185)"
         id="g7543">
        <path
           inkscape:connector-curvature="0"
           id="path7545"
           style="fill:#e5e5e5;fill-opacity:1;fill-rule:evenodd;stroke:none"
           d="m 0,0 c -5.966,10.046 -9.882,29.759 -10.102,37.661 -10.615,-3.953 -19.95,-16.026 -21.158,-26.73 4.582,5.85 8.095,10.114 12.27,8.8 C -15.433,18.612 -4.139,4.62 0,0" />
      </g>
      <g
         transform="translate(354.5634,457.7128)"
         id="g7547">
        <path
           inkscape:connector-curvature="0"
           id="path7549"
           style="fill:#e5e5e5;fill-opacity:1;fill-rule:evenodd;stroke:none"
           d="m 0,0 c 5.542,-5.656 13.614,-7.938 23.112,-8.322 0.578,1.403 1.129,2.777 1.658,4.127 C 15.257,-3.64 7.146,-1.217 1.42,4.386 0.952,2.938 0.48,1.475 0,0" />
      </g>
      <g
         transform="translate(480.68499,457.5626)"
         id="g7551">
        <path
           inkscape:connector-curvature="0"
           id="path7553"
           style="fill:#e5e5e5;fill-opacity:1;fill-rule:evenodd;stroke:none"
           d="m 0,0 c -5.622,-5.738 -13.811,-8.053 -23.446,-8.442 -0.587,1.423 -1.146,2.817 -1.682,4.186 9.65,0.564 17.879,3.021 23.688,8.705 C -0.966,2.981 -0.487,1.497 0,0" />
      </g>
    </g>
  </g>
</svg>
