<?xml version="1.0" encoding="UTF-8" standalone="no"?>
<svg
   xmlns:dc="http://purl.org/dc/elements/1.1/"
   xmlns:cc="http://creativecommons.org/ns#"
   xmlns:rdf="http://www.w3.org/1999/02/22-rdf-syntax-ns#"
   xmlns:svg="http://www.w3.org/2000/svg"
   xmlns="http://www.w3.org/2000/svg"
   xmlns:sodipodi="http://sodipodi.sourceforge.net/DTD/sodipodi-0.dtd"
   xmlns:inkscape="http://www.inkscape.org/namespaces/inkscape"
   viewBox="0 0 1066.6667 1066.6667"
   height="1066.6667"
   width="1066.6667"
   xml:space="preserve"
   id="svg2"
   version="1.1"
   sodipodi:docname="teacher.svg"
   inkscape:version="0.92.2 (5c3e80d, 2017-08-06)"><sodipodi:namedview
     pagecolor="#ffffff"
     bordercolor="#666666"
     borderopacity="1"
     objecttolerance="10"
     gridtolerance="10"
     guidetolerance="10"
     inkscape:pageopacity="0"
     inkscape:pageshadow="2"
     inkscape:window-width="1440"
     inkscape:window-height="837"
     id="namedview34588"
     showgrid="false"
     inkscape:zoom="0.50437496"
     inkscape:cx="433.99479"
     inkscape:cy="517.21416"
     inkscape:window-x="-8"
     inkscape:window-y="-8"
     inkscape:window-maximized="1"
     inkscape:current-layer="g39111" /><metadata
     id="metadata8"><rdf:RDF><cc:Work
         rdf:about=""><dc:format>image/svg+xml</dc:format><dc:type
           rdf:resource="http://purl.org/dc/dcmitype/StillImage" /></cc:Work></rdf:RDF></metadata><defs
     id="defs6" /><g
     transform="matrix(1.3333333,0,0,-1.3333333,0,1066.6667)"
     id="g10"><g
       transform="scale(0.1)"
       id="g12"><g
         id="g39111"
         transform="matrix(2.5686995,0,0,2.2440478,143.41233,-9195.7432)"><path
           inkscape:connector-curvature="0"
           d="m 1367.21,4382.18 c -3.64,23.04 -24.82,55.78 -24.82,55.78 0,100.78 13.64,865.76 13.64,865.76 0,0 -101.72,27.72 -139.25,8.44 0,0 51.56,-801.34 54.97,-881.12 -0.03,-0.02 -46.66,-118.02 -50.93,-118.84 -54.17,-10.51 -100.67,-53.8 -65.01,-57.35 121.67,-12.13 149.94,29.06 162.07,38.76 0.02,0.02 0.04,0.04 0.06,0.06 l 0.26,-24.27 25.36,-5.19 v -0.87 h 24.26 c 0,0 3.03,95.8 -0.61,118.84"
           style="fill:#fab665;fill-opacity:1;fill-rule:nonzero;stroke:none"
           id="path16" /><path
           inkscape:connector-curvature="0"
           d="m 1155.81,4254.85 c 121.67,-12.13 149.94,29.06 162.07,38.76 0.02,0.02 0.04,0.04 0.06,0.06 l 0.26,-24.27 25.36,-5.19 v -0.87 h 24.26 c 0,0 3.03,95.8 -0.61,118.84 -0.84,5.31 -2.1,11.14 -3.54,16.96 v 0 c -16.82,-15.72 -107.52,-112 -107.52,-112 -51.18,-7.37 -73.91,0.32 -83.6,6.59 -27.53,-16.25 -40.66,-36.5 -16.74,-38.88"
           style="fill:#444142;fill-opacity:1;fill-rule:nonzero;stroke:none"
           id="path18" /><path
           inkscape:connector-curvature="0"
           d="m 1369.59,4382.18 c 3.63,23.04 24.82,55.78 24.82,55.78 0,100.78 -13.64,865.76 -13.64,865.76 0,0 101.72,27.72 139.25,8.44 0,0 -51.56,-801.34 -54.97,-881.12 0.02,-0.02 46.66,-118.02 50.93,-118.84 54.17,-10.51 100.67,-53.8 65.01,-57.35 -121.67,-12.13 -149.95,29.06 -162.07,38.76 -0.02,0.02 -0.04,0.04 -0.06,0.06 l -0.26,-24.27 -25.37,-5.19 v -0.87 h -24.25 c 0,0 -3.03,95.8 0.61,118.84"
           style="fill:#fab665;fill-opacity:1;fill-rule:nonzero;stroke:none"
           id="path20" /><path
           inkscape:connector-curvature="0"
           d="m 1580.99,4254.85 c -121.67,-12.13 -149.95,29.06 -162.07,38.76 -0.02,0.02 -0.04,0.04 -0.06,0.06 l -0.26,-24.27 -25.37,-5.19 v -0.87 h -24.25 c 0,0 -3.03,95.8 0.61,118.84 0.83,5.31 2.1,11.14 3.54,16.96 v 0 c 16.81,-15.72 107.52,-112 107.52,-112 51.18,-7.37 73.91,0.32 83.59,6.59 27.54,-16.25 40.67,-36.5 16.75,-38.88"
           style="fill:#444142;fill-opacity:1;fill-rule:nonzero;stroke:none"
           id="path22" /><path
           inkscape:connector-curvature="0"
           d="m 1100.7,6529.22 -122.641,-287.92 42.871,-44.51 106.6,208.01 -26.83,124.42"
           style="fill:#4f4c4c;fill-opacity:1;fill-rule:nonzero;stroke:none"
           id="path24" /><path
           inkscape:connector-curvature="0"
           d="m 1935.15,6543.45 c 0,0 16.1,36.48 19.37,44.34 3.26,7.86 -8.52,31.87 -10.24,62.29 -1.71,30.42 -3.95,54.83 -2.84,67.71 1.1,12.88 16.36,17.63 22.05,4.17 5.69,-13.46 17.57,-48.22 17.57,-48.22 0,0 32.43,97.56 37.26,113.58 4.84,16.02 21.64,10.26 18.3,-8.49 -3.33,-18.74 -18.04,-89.5 -18.04,-89.5 0,0 38.51,89.48 42.1,94.36 3.59,4.89 17.41,4.57 15.59,-6.52 -1.81,-11.09 -30,-97.77 -30,-97.77 0,0 42.98,77.62 45.21,83.49 2.23,5.86 16.83,4.61 14.01,-8.12 -2.82,-12.73 -32.94,-81.6 -32.94,-81.6 0,0 31.15,40.56 37.81,47.61 6.66,7.05 14.88,2.02 10.42,-9.71 -4.47,-11.72 -35.36,-59.24 -38.3,-63.32 -2.94,-4.07 -29.12,-57.19 -35.15,-67.05 -6.04,-9.86 -24.24,-19.55 -29.44,-25.16 -5.2,-5.6 -19.71,-39.94 -19.71,-39.94 l -63.03,27.85"
           style="fill:#fab665;fill-opacity:1;fill-rule:nonzero;stroke:none"
           id="path26" /><path
           inkscape:connector-curvature="0"
           d="m 1615.98,5805.51 -242.18,-44.52 v 0.45 l -0.83,-0.22 -0.83,0.22 v -0.45 l -241.66,44.52 c 0,0 3.23,-167.31 47.47,-511.73 0,0 77.9,-15.64 194.19,-15.79 v -0.01 c 0.29,0 0.55,0.01 0.83,0.01 0.28,0 0.54,-0.01 0.83,-0.01 v 0.01 c 116.29,0.15 194.19,15.79 194.19,15.79 44.24,344.42 47.99,511.73 47.99,511.73"
           style="fill:#444142;fill-opacity:1;fill-rule:nonzero;stroke:none"
           id="path28" /><path
           inkscape:connector-curvature="0"
           d="m 1475.32,6591.99 h -213.84 l -36.74,-270.17 143.66,-329.02 143.65,329.02 -36.73,270.17"
           style="fill:#fab665;fill-opacity:1;fill-rule:nonzero;stroke:none"
           id="path30" /><path
           inkscape:connector-curvature="0"
           d="m 1445.42,6578.28 h -154.04 v 184.85 h 154.04 v -184.85"
           style="fill:#fab665;fill-opacity:1;fill-rule:nonzero;stroke:none"
           id="path32" /><path
           inkscape:connector-curvature="0"
           d="m 1254.37,6528 c 0,0 40.76,-53.32 114.03,-53.32 73.27,0 115.62,53.32 115.62,53.32 V 6215.18 L 1368.4,5998.76 1254.37,6209.25 V 6528"
           style="fill:#ffffff;fill-opacity:1;fill-rule:nonzero;stroke:none"
           id="path34" /><path
           inkscape:connector-curvature="0"
           d="m 1291.38,6718.44 c 16.11,-9.33 43,-20.99 77.02,-20.99 34.02,0 60.91,11.67 77.02,20.99 v 44.69 h -154.04 v -44.69"
           style="fill:#f69461;fill-opacity:1;fill-rule:nonzero;stroke:none"
           id="path36" /><path
           inkscape:connector-curvature="0"
           d="m 1717.98,6925.87 c 37.92,-56.88 -99.54,-112.18 -71.44,41.07 28.1,153.26 34.65,245.6 0,379.19 -46.31,178.53 -278.14,169.05 -278.14,169.05 0,0 -99.82,7.9 -143.33,-34.76 0,0 -91.81,-3.16 -134.81,-134.29 -43,-131.14 -28.1,-225.93 0,-379.19 28.09,-153.25 -109.362,-97.95 -71.44,-41.07 0,0 -55.3,-72.68 6.32,-140.62 61.61,-67.94 226.76,-88.47 343.26,-20.54 116.5,-67.93 281.64,-47.4 343.26,20.54 61.62,67.94 6.32,140.62 6.32,140.62"
           style="fill:#53423b;fill-opacity:1;fill-rule:nonzero;stroke:none"
           id="path38" /><path
           inkscape:connector-curvature="0"
           d="m 1124.85,7126.3 c 0,0 -61,25.28 -58.86,-34.47 2.15,-59.75 58.86,-105.72 58.86,-105.72 v 140.19"
           style="fill:#f89b47;fill-opacity:1;fill-rule:nonzero;stroke:none"
           id="path40" /><path
           inkscape:connector-curvature="0"
           d="m 1611.95,7126.3 c 0,0 61,25.28 58.85,-34.47 -2.14,-59.75 -58.85,-105.72 -58.85,-105.72 v 140.19"
           style="fill:#f89b47;fill-opacity:1;fill-rule:nonzero;stroke:none"
           id="path42" /><path
           inkscape:connector-curvature="0"
           d="m 1367.54,7385.81 c -13.76,0.47 -200.93,4.57 -269.43,-114.94 0,0 13.19,-244.11 20.48,-299.19 17.16,-129.64 141.75,-250.99 248.07,-252.32 v -0.06 c 0.29,0 0.59,0.03 0.88,0.03 0.3,0 0.59,-0.03 0.89,-0.03 v 0.06 c 106.32,1.33 230.9,122.68 248.07,252.32 7.29,55.08 20.48,299.19 20.48,299.19 -68.51,119.51 -255.67,115.41 -269.44,114.94"
           style="fill:#fab665;fill-opacity:1;fill-rule:nonzero;stroke:none"
           id="path44" /><path
           inkscape:connector-curvature="0"
           d="m 1265.33,7093.49 c 0,-26.85 -12.87,-48.62 -28.73,-48.62 -15.87,0 -28.73,21.77 -28.73,48.62 0,26.85 12.86,48.62 28.73,48.62 15.86,0 28.73,-21.77 28.73,-48.62"
           style="fill:#3a3a3c;fill-opacity:1;fill-rule:nonzero;stroke:none"
           id="path46" /><path
           inkscape:connector-curvature="0"
           d="m 1243.49,7108.72 c 0,-7.99 -5.01,-14.47 -11.19,-14.47 -6.17,0 -11.18,6.48 -11.18,14.47 0,7.99 5.01,14.46 11.18,14.46 6.18,0 11.19,-6.47 11.19,-14.46"
           style="fill:#ffffff;fill-opacity:1;fill-rule:nonzero;stroke:none"
           id="path48" /><path
           inkscape:connector-curvature="0"
           d="m 1526.41,7092.73 c 0,-26.85 -12.86,-48.62 -28.73,-48.62 -15.86,0 -28.72,21.77 -28.72,48.62 0,26.85 12.86,48.62 28.72,48.62 15.87,0 28.73,-21.77 28.73,-48.62"
           style="fill:#3a3a3c;fill-opacity:1;fill-rule:nonzero;stroke:none"
           id="path50" /><path
           inkscape:connector-curvature="0"
           d="m 1504.58,7107.96 c 0,-8 -5.01,-14.47 -11.19,-14.47 -6.18,0 -11.19,6.47 -11.19,14.47 0,7.98 5.01,14.46 11.19,14.46 6.18,0 11.19,-6.48 11.19,-14.46"
           style="fill:#ffffff;fill-opacity:1;fill-rule:nonzero;stroke:none"
           id="path52" /><path
           inkscape:connector-curvature="0"
           d="m 1368.4,7067.84 c 0,0 -45.28,-51.71 -45.28,-98.25 0,-46.54 45.28,-8.62 45.28,-8.62 v 106.87"
           style="fill:#f79662;fill-opacity:1;fill-rule:nonzero;stroke:none"
           id="path54" /><path
           inkscape:connector-curvature="0"
           d="m 1468.96,7123.18 c 0,0 3.59,31.78 28.72,31.78 25.14,0 26.66,-28.98 51.8,-9.09 0,0 -6.74,-17.87 -23.07,-22.69 0,0 -15.94,23.09 -28.73,23.09 -17.09,0 -28.72,-23.09 -28.72,-23.09"
           style="fill:#3a3a3c;fill-opacity:1;fill-rule:nonzero;stroke:none"
           id="path56" /><path
           inkscape:connector-curvature="0"
           d="m 1265.33,7123.18 c 0,0 -3.6,31.78 -28.73,31.78 -25.13,0 -26.66,-28.98 -51.8,-9.09 0,0 6.74,-17.87 23.07,-22.69 0,0 15.94,23.09 28.73,23.09 17.09,0 28.73,-23.09 28.73,-23.09"
           style="fill:#3a3a3c;fill-opacity:1;fill-rule:nonzero;stroke:none"
           id="path58" /><path
           inkscape:connector-curvature="0"
           d="m 1265.33,6887.55 c 0,0 2.81,-1.7 7.88,-4.3 4.98,-2.76 12.4,-6.09 21.35,-9.71 4.49,-1.79 9.37,-3.6 14.63,-5.25 5.16,-1.92 10.88,-3 16.59,-4.68 5.85,-1.15 11.88,-2.47 18.06,-3.19 6.19,-0.67 12.47,-1.52 18.79,-1.25 3.16,0.01 6.32,-0.27 9.45,-0.06 3.13,0.3 6.24,0.6 9.33,0.89 6.24,0.28 12.15,1.95 17.99,3.01 5.91,0.85 11.17,3.34 16.45,4.79 5.32,1.43 9.93,3.82 14.33,5.77 4.29,2.15 8.66,3.43 11.94,5.6 3.41,2 6.38,3.74 8.83,5.17 4.94,2.85 7.88,4.4 7.88,4.4 0,0 -2.4,-2.2 -6.8,-5.9 -2.23,-1.84 -4.93,-4.08 -8.02,-6.65 -2.99,-2.78 -7.1,-4.77 -11.31,-7.45 -4.27,-2.55 -8.81,-5.61 -14.24,-7.52 -5.36,-1.99 -10.74,-5.12 -16.95,-6.29 -6.13,-1.38 -12.34,-3.68 -18.99,-4.02 -3.29,-0.36 -6.61,-0.73 -9.95,-1.1 -3.34,-0.28 -6.71,-0.08 -10.07,-0.12 -6.75,-0.14 -13.41,0.84 -19.96,1.68 -6.56,0.81 -12.81,2.72 -18.88,4.19 -5.94,1.97 -11.74,3.7 -16.93,6.13 -5.32,2.1 -10.12,4.57 -14.48,6.95 -8.76,4.71 -15.45,9.6 -20.04,13.06 -4.58,3.49 -6.88,5.85 -6.88,5.85"
           style="fill:#f46f49;fill-opacity:1;fill-rule:nonzero;stroke:none"
           id="path60" /><path
           inkscape:connector-curvature="0"
           d="m 1282.57,7342.97 c 0,0 45.91,-151.68 279.74,-162.74 0,0 1,63.2 -23.2,97.96 0,0 86.37,-99.87 73.76,-234.08 0,0 60.04,132.96 37.92,254.62 -22.12,121.66 -330.48,151.15 -377.6,109.02 0,0 -166.32,0.57 -179.26,-129.56 -12.94,-130.13 12.46,-148.67 12.46,-148.67 0,0 169.77,76 176.18,213.45"
           style="fill:#53423b;fill-opacity:1;fill-rule:nonzero;stroke:none"
           id="path62" /><path
           inkscape:connector-curvature="0"
           d="m 1112.16,7014.16 c 0,-7.75 -6.29,-14.05 -14.05,-14.05 -7.76,0 -14.05,6.3 -14.05,14.05 0,7.77 6.29,14.05 14.05,14.05 7.76,0 14.05,-6.28 14.05,-14.05"
           style="fill:#ffffff;fill-opacity:1;fill-rule:nonzero;stroke:none"
           id="path64" /><path
           inkscape:connector-curvature="0"
           d="m 1651.03,7014.16 c 0,-7.75 -6.29,-14.05 -14.05,-14.05 -7.76,0 -14.06,6.3 -14.06,14.05 0,7.77 6.3,14.05 14.06,14.05 7.76,0 14.05,-6.28 14.05,-14.05"
           style="fill:#ffffff;fill-opacity:1;fill-rule:nonzero;stroke:none"
           id="path66" /><path
           inkscape:connector-curvature="0"
           d="m 1636.1,6529.22 -190.68,95.56 -7.23,-293.87 -69.79,-338.11 -69.79,338.11 -7.23,293.87 -190.68,-95.56 c 0,0 62.39,-486.73 70.08,-540.69 2.24,-15.74 -82.39,-191.64 -82.39,-191.64 l 280.01,-63.2 280.01,63.2 c 0,0 -84.63,175.9 -82.39,191.64 7.69,53.96 70.08,540.69 70.08,540.69"
           style="fill:#4f4c4c;fill-opacity:1;fill-rule:nonzero;stroke:none"
           id="path68" /><path
           inkscape:connector-curvature="0"
           d="m 1291.38,6630.74 c 0,0 -44.43,-15.81 -44.87,-24.3 -0.44,-8.49 -53.76,-214.67 -52.58,-222.96 1.19,-8.3 59.25,-18.96 59.25,-18.96 0,0 -30.81,-29.63 -29.62,-34.37 1.18,-4.74 144.84,-331.39 144.84,-331.39 l -69.79,338.11 -7.23,293.87"
           style="fill:#797777;fill-opacity:1;fill-rule:nonzero;stroke:none"
           id="path70" /><path
           inkscape:connector-curvature="0"
           d="m 1445.42,6630.74 c 0,0 44.43,-15.81 44.87,-24.3 0.43,-8.49 53.76,-214.67 52.57,-222.96 -1.18,-8.3 -59.25,-18.96 -59.25,-18.96 0,0 30.81,-29.63 29.63,-34.37 -1.19,-4.74 -144.84,-331.39 -144.84,-331.39 l 69.79,338.11 7.23,293.87"
           style="fill:#797777;fill-opacity:1;fill-rule:nonzero;stroke:none"
           id="path72" /><path
           inkscape:connector-curvature="0"
           d="m 1311.85,6602.87 c 0,-5.59 -4.54,-10.13 -10.14,-10.13 -5.59,0 -10.13,4.54 -10.13,10.13 0,5.6 4.54,10.14 10.13,10.14 5.6,0 10.14,-4.54 10.14,-10.14"
           style="fill:#ffffff;fill-opacity:1;fill-rule:nonzero;stroke:none"
           id="path74" /><path
           inkscape:connector-curvature="0"
           d="m 1329.06,6592.74 c 0,-5.6 -4.54,-10.13 -10.14,-10.13 -5.59,0 -10.13,4.53 -10.13,10.13 0,5.6 4.54,10.13 10.13,10.13 5.6,0 10.14,-4.53 10.14,-10.13"
           style="fill:#ffffff;fill-opacity:1;fill-rule:nonzero;stroke:none"
           id="path76" /><path
           inkscape:connector-curvature="0"
           d="m 1347.72,6585.12 c 0,-5.59 -4.54,-10.13 -10.13,-10.13 -5.6,0 -10.14,4.54 -10.14,10.13 0,5.6 4.54,10.14 10.14,10.14 5.59,0 10.13,-4.54 10.13,-10.14"
           style="fill:#ffffff;fill-opacity:1;fill-rule:nonzero;stroke:none"
           id="path78" /><path
           inkscape:connector-curvature="0"
           d="m 1367.99,6579.52 c 0,-5.6 -4.54,-10.13 -10.14,-10.13 -5.59,0 -10.13,4.53 -10.13,10.13 0,5.59 4.54,10.13 10.13,10.13 5.6,0 10.14,-4.54 10.14,-10.13"
           style="fill:#ffffff;fill-opacity:1;fill-rule:nonzero;stroke:none"
           id="path80" /><path
           inkscape:connector-curvature="0"
           d="m 1388.25,6579.52 c 0,-5.6 -4.54,-10.13 -10.13,-10.13 -5.6,0 -10.13,4.53 -10.13,10.13 0,5.59 4.53,10.13 10.13,10.13 5.59,0 10.13,-4.54 10.13,-10.13"
           style="fill:#ffffff;fill-opacity:1;fill-rule:nonzero;stroke:none"
           id="path82" /><path
           inkscape:connector-curvature="0"
           d="m 1408.52,6585.12 c 0,-5.59 -4.54,-10.13 -10.14,-10.13 -5.59,0 -10.13,4.54 -10.13,10.13 0,5.6 4.54,10.14 10.13,10.14 5.6,0 10.14,-4.54 10.14,-10.14"
           style="fill:#ffffff;fill-opacity:1;fill-rule:nonzero;stroke:none"
           id="path84" /><path
           inkscape:connector-curvature="0"
           d="m 1427.18,6592.74 c 0,-5.6 -4.54,-10.13 -10.13,-10.13 -5.6,0 -10.14,4.53 -10.14,10.13 0,5.6 4.54,10.13 10.14,10.13 5.59,0 10.13,-4.53 10.13,-10.13"
           style="fill:#ffffff;fill-opacity:1;fill-rule:nonzero;stroke:none"
           id="path86" /><path
           inkscape:connector-curvature="0"
           d="m 1444.32,6602.87 c 0,-5.59 -4.54,-10.13 -10.13,-10.13 -5.6,0 -10.13,4.54 -10.13,10.13 0,5.6 4.53,10.14 10.13,10.14 5.59,0 10.13,-4.54 10.13,-10.14"
           style="fill:#ffffff;fill-opacity:1;fill-rule:nonzero;stroke:none"
           id="path88" /><path
           inkscape:connector-curvature="0"
           d="m 1636.1,6529.22 c 0,0 136.18,-214.47 145.66,-214.47 9.48,0 150.99,252.56 150.99,252.56 l 80.58,-39.66 c 0,0 -174,-348.42 -230.88,-348.42 -56.88,0 -181.02,189.2 -181.02,189.2 l 34.67,160.79"
           style="fill:#4f4c4c;fill-opacity:1;fill-rule:nonzero;stroke:none"
           id="path90" /><path
           inkscape:connector-curvature="0"
           d="m 1944.36,6594.3 -42.49,-58.4 56.49,-29.13 26.32,24.41 -6.67,-33.75 39.08,-22.4 21.84,70.84 -94.57,48.43"
           style="fill:#797777;fill-opacity:1;fill-rule:nonzero;stroke:none"
           id="path92" /><path
           inkscape:connector-curvature="0"
           d="m 904.922,6055.25 c 0,0 5.348,56.84 69.008,166.79 l 54.72,-129.75 -68.67,-62.66 -55.058,25.62"
           style="fill:#4f4c4c;fill-opacity:1;fill-rule:nonzero;stroke:none"
           id="path94" /><path
           inkscape:connector-curvature="0"
           d="m 899.242,6502.98 343.748,81.23 118.72,-502.39 -343.75,-81.24 -118.718,502.4"
           style="fill:#ffd42a;fill-opacity:1;fill-rule:nonzero;stroke:none"
           id="path96" /><path
           inkscape:connector-curvature="0"
           d="m 1196.05,6461.96 -178.48,-42.18 -6.42,27.16 178.48,42.17 6.42,-27.15"
           style="fill:#ffffff;fill-opacity:1;fill-rule:nonzero;stroke:none"
           id="path98" /><path
           inkscape:connector-curvature="0"
           d="m 1048.61,6007.83 -30.65,-7.25 -118.718,502.4 30.649,7.24 118.719,-502.39"
           style="fill:#222222;fill-opacity:1;fill-rule:nonzero;stroke:none"
           id="path100" /><path
           inkscape:connector-curvature="0"
           d="m 1180.74,6161.98 c 0,0 38.52,10.3 46.7,12.67 8.18,2.38 24.39,24.57 47.03,44.96 22.64,20.39 35.48,28.59 46.22,35.79 10.73,7.21 28.61,-6.75 21.68,-19.62 -6.93,-12.87 -31.3,-27.99 -31.3,-27.99 0,0 8.28,2.74 23.85,8.88 21.49,8.48 58.38,-95.72 19.41,-104.23 -4.91,-1.07 -62.82,-13.11 -74.29,-14.58 -11.47,-1.47 -30.42,6.65 -38.05,7.19 -7.63,0.55 -43.49,-9.65 -43.49,-9.65 l -17.76,66.58"
           style="fill:#fab665;fill-opacity:1;fill-rule:nonzero;stroke:none"
           id="path102" /><path
           inkscape:connector-curvature="0"
           d="m 935.727,6112.09 264.663,64.15 22.48,-85.58 c 0,0 -222.55,-72.09 -238.515,-77.87 -15.96,-5.79 -55.648,-11.35 -73.75,20.78 -18.097,32.14 11.165,74.1 25.122,78.52"
           style="fill:#4f4c4c;fill-opacity:1;fill-rule:nonzero;stroke:none"
           id="path104" /><path
           inkscape:connector-curvature="0"
           d="m 1226.15,6186.64 -72.14,-3.44 12.67,-62.29 35.52,-5.23 -30.49,-15.93 7.01,-44.5 68.9,27.34 -21.47,104.05"
           style="fill:#797777;fill-opacity:1;fill-rule:nonzero;stroke:none"
           id="path106" /></g></g></g></svg>