<?xml version="1.0" encoding="UTF-8" standalone="no"?>
<!-- Generator: Adobe Illustrator 19.0.0, SVG Export Plug-In . SVG Version: 6.00 Build 0)  -->

<svg
   xmlns:dc="http://purl.org/dc/elements/1.1/"
   xmlns:cc="http://creativecommons.org/ns#"
   xmlns:rdf="http://www.w3.org/1999/02/22-rdf-syntax-ns#"
   xmlns:svg="http://www.w3.org/2000/svg"
   xmlns="http://www.w3.org/2000/svg"
   xmlns:sodipodi="http://sodipodi.sourceforge.net/DTD/sodipodi-0.dtd"
   xmlns:inkscape="http://www.inkscape.org/namespaces/inkscape"
   version="1.1"
   id="Layer_1"
   x="0px"
   y="0px"
   viewBox="0 0 496.158 496.158"
   style="enable-background:new 0 0 496.158 496.158;"
   xml:space="preserve"
   sodipodi:docname="ten.svg"
   inkscape:version="0.92.2 (5c3e80d, 2017-08-06)"><metadata
     id="metadata18588"><rdf:RDF><cc:Work
         rdf:about=""><dc:format>image/svg+xml</dc:format><dc:type
           rdf:resource="http://purl.org/dc/dcmitype/StillImage" /><dc:title></dc:title></cc:Work></rdf:RDF></metadata><defs
     id="defs18586" /><sodipodi:namedview
     pagecolor="#ffffff"
     bordercolor="#666666"
     borderopacity="1"
     objecttolerance="10"
     gridtolerance="10"
     guidetolerance="10"
     inkscape:pageopacity="0"
     inkscape:pageshadow="2"
     inkscape:window-width="1440"
     inkscape:window-height="837"
     id="namedview18584"
     showgrid="false"
     inkscape:zoom="1.0510765"
     inkscape:cx="229.20149"
     inkscape:cy="247.3144"
     inkscape:window-x="-8"
     inkscape:window-y="-8"
     inkscape:window-maximized="1"
     inkscape:current-layer="Layer_1" /><g
     id="g18551"
     transform="translate(0,-3.329175)"><path
       style="fill:#ffffff"
       d="m 189.631,145.419 c -3.127,-4.003 -7.276,-6.006 -12.451,-6.006 -4.592,0 -7.716,0.879 -9.375,2.637 -1.662,1.758 -5.226,6.445 -10.693,14.063 -5.471,7.617 -11.744,14.502 -18.823,20.654 -7.081,6.152 -16.53,12.012 -28.345,17.578 -7.91,3.712 -13.429,6.738 -16.553,9.082 -3.127,2.344 -4.688,6.006 -4.688,10.986 0,4.298 1.586,8.082 4.761,11.353 3.173,3.273 6.812,4.907 10.913,4.907 8.592,0 25.291,-9.521 50.098,-28.564 V 335.41 c 0,7.814 1.806,13.722 5.42,17.725 3.611,4.003 8.397,6.006 14.355,6.006 13.378,0 20.068,-9.814 20.068,-29.443 V 161.972 c 0,-7.031 -1.563,-12.547 -4.687,-16.553 z"
       id="path18547"
       inkscape:connector-curvature="0" /></g><g
     id="g18553" /><g
     id="g18555" /><g
     id="g18557" /><g
     id="g18559" /><g
     id="g18561" /><g
     id="g18563" /><g
     id="g18565" /><g
     id="g18567" /><g
     id="g18569" /><g
     id="g18571" /><g
     id="g18573" /><g
     id="g18575" /><g
     id="g18577" /><g
     id="g18579" /><g
     id="g18581" /><path
     style="fill:#ffffff"
     d="m 365.20963,142.08983 c -3.127,-4.003 -7.276,-6.006 -12.451,-6.006 -4.592,0 -7.716,0.87899 -9.375,2.637 -1.662,1.758 -5.226,6.44499 -10.693,14.06299 -5.471,7.617 -11.744,14.50201 -18.823,20.654 -7.081,6.152 -16.53,12.012 -28.345,17.578 -7.91,3.712 -13.429,6.738 -16.553,9.082 -3.127,2.344 -4.688,6.006 -4.688,10.986 0,4.298 1.586,8.082 4.761,11.353 3.173,3.273 6.812,4.907 10.913,4.907 8.592,0 25.291,-9.52099 50.098,-28.56399 v 133.30099 c 0,7.81401 1.806,13.722 5.42,17.72501 3.611,4.003 8.397,6.006 14.355,6.006 13.378,0 20.068,-9.814 20.068,-29.443 v -167.726 c 0,-7.031 -1.563,-12.547 -4.687,-16.553 z"
     id="path18547-2"
     inkscape:connector-curvature="0" /></svg>