<?xml version="1.0" encoding="UTF-8" standalone="no"?>
<!-- Generator: Adobe Illustrator 19.0.0, SVG Export Plug-In . SVG Version: 6.00 Build 0)  -->

<svg
   xmlns:dc="http://purl.org/dc/elements/1.1/"
   xmlns:cc="http://creativecommons.org/ns#"
   xmlns:rdf="http://www.w3.org/1999/02/22-rdf-syntax-ns#"
   xmlns:svg="http://www.w3.org/2000/svg"
   xmlns="http://www.w3.org/2000/svg"
   xmlns:sodipodi="http://sodipodi.sourceforge.net/DTD/sodipodi-0.dtd"
   xmlns:inkscape="http://www.inkscape.org/namespaces/inkscape"
   version="1.1"
   id="Layer_1"
   x="0px"
   y="0px"
   viewBox="0 0 496.158 496.158"
   style="enable-background:new 0 0 496.158 496.158;"
   xml:space="preserve"
   sodipodi:docname="ten.svg"
   inkscape:version="0.92.2 (5c3e80d, 2017-08-06)"><metadata
     id="metadata18588"><rdf:RDF><cc:Work
         rdf:about=""><dc:format>image/svg+xml</dc:format><dc:type
           rdf:resource="http://purl.org/dc/dcmitype/StillImage" /><dc:title></dc:title></cc:Work></rdf:RDF></metadata><defs
     id="defs18586" /><sodipodi:namedview
     pagecolor="#ffffff"
     bordercolor="#666666"
     borderopacity="1"
     objecttolerance="10"
     gridtolerance="10"
     guidetolerance="10"
     inkscape:pageopacity="0"
     inkscape:pageshadow="2"
     inkscape:window-width="1440"
     inkscape:window-height="837"
     id="namedview18584"
     showgrid="false"
     inkscape:zoom="1.0510765"
     inkscape:cx="229.20149"
     inkscape:cy="247.3144"
     inkscape:window-x="-8"
     inkscape:window-y="-8"
     inkscape:window-maximized="1"
     inkscape:current-layer="Layer_1" /><g
     id="g18551"
     transform="translate(0,-3.329175)"><path
       style="fill:#ffffff"
       d="m 189.631,145.419 c -3.127,-4.003 -7.276,-6.006 -12.451,-6.006 -4.592,0 -7.716,0.879 -9.375,2.637 -1.662,1.758 -5.226,6.445 -10.693,14.063 -5.471,7.617 -11.744,14.502 -18.823,20.654 -7.081,6.152 -16.53,12.012 -28.345,17.578 -7.91,3.712 -13.429,6.738 -16.553,9.082 -3.127,2.344 -4.688,6.006 -4.688,10.986 0,4.298 1.586,8.082 4.761,11.353 3.173,3.273 6.812,4.907 10.913,4.907 8.592,0 25.291,-9.521 50.098,-28.564 V 335.41 c 0,7.814 1.806,13.722 5.42,17.725 3.611,4.003 8.397,6.006 14.355,6.006 13.378,0 20.068,-9.814 20.068,-29.443 V 161.972 c 0,-7.031 -1.563,-12.547 -4.687,-16.553 z"
       id="path18547"
       inkscape:connector-curvature="0" /></g><g
     id="g18553" /><g
     id="g18555" /><g
     id="g18557" /><g
     id="g18559" /><g
     id="g18561" /><g
     id="g18563" /><g
     id="g18565" /><g
     id="g18567" /><g
     id="g18569" /><g
     id="g18571" /><g
     id="g18573" /><g
     id="g18575" /><g
     id="g18577" /><g
     id="g18579" /><g
     id="g18581" /><path
     inkscape:connector-curvature="0"
     style="fill:#ffffff"
     d="m 390.71507,322.76865 c -4.005,-3.124 -9.814,-4.688 -17.432,-4.688 h -76.465 c 2.44,-3.71 4.834,-6.885 7.178,-9.521 5.468,-6.64 15.55,-15.967 30.249,-27.979 14.696,-12.012 25.17,-20.824 31.421,-26.44 6.249,-5.614 12.378,-13.378 18.384,-23.291 6.006,-9.911 9.009,-20.922 9.009,-33.032 0,-7.713 -1.442,-15.161 -4.321,-22.339 -2.882,-7.178 -6.91,-13.5 -12.085,-18.97 -5.177,-5.468 -11.183,-9.764 -18.018,-12.891 -10.547,-4.688 -23.291,-7.031 -38.232,-7.031 -12.403,0 -23.218,1.831 -32.446,5.493 -9.228,3.662 -16.846,8.473 -22.852,14.429 -6.006,5.958 -10.524,12.598 -13.55,19.922 -3.028,7.324 -4.541,14.355 -4.541,21.094 0,5.566 1.611,9.961 4.834,13.184 3.223,3.223 7.274,4.834 12.158,4.834 5.566,0 9.789,-1.758 12.671,-5.273 2.879,-3.516 5.468,-8.544 7.764,-15.088 2.293,-6.542 3.93,-10.547 4.907,-12.012 7.324,-11.229 17.381,-16.846 30.176,-16.846 6.054,0 11.646,1.369 16.772,4.102 5.127,2.735 9.178,6.569 12.158,11.499 2.978,4.933 4.468,10.524 4.468,16.772 0,5.763 -1.392,11.646 -4.175,17.651 -2.783,6.005 -6.837,11.865 -12.158,17.578 -5.324,5.713 -11.989,11.403 -19.995,17.065 -4.493,3.028 -11.964,9.352 -22.412,18.97 -10.451,9.62 -22.169,21.167 -35.156,34.644 -3.126,3.321 -6.006,7.887 -8.643,13.696 -2.637,5.812 -3.955,10.474 -3.955,13.989 0,5.47 2.051,10.231 6.152,14.282 4.102,4.054 9.814,6.079 17.139,6.079 h 107.813 c 6.445,0 11.254,-1.659 14.429,-4.98 3.172,-3.319 4.761,-7.372 4.761,-12.158 -10e-4,-5.369 -2.004,-9.617 -6.007,-12.744 z"
     id="path23123" /></svg>