<?xml version="1.0" encoding="UTF-8" standalone="no"?>
<!-- Generator: Adobe Illustrator 19.0.0, SVG Export Plug-In . SVG Version: 6.00 Build 0)  -->

<svg
   xmlns:dc="http://purl.org/dc/elements/1.1/"
   xmlns:cc="http://creativecommons.org/ns#"
   xmlns:rdf="http://www.w3.org/1999/02/22-rdf-syntax-ns#"
   xmlns:svg="http://www.w3.org/2000/svg"
   xmlns="http://www.w3.org/2000/svg"
   xmlns:sodipodi="http://sodipodi.sourceforge.net/DTD/sodipodi-0.dtd"
   xmlns:inkscape="http://www.inkscape.org/namespaces/inkscape"
   version="1.1"
   id="Layer_1"
   x="0px"
   y="0px"
   viewBox="0 0 496.158 496.158"
   style="enable-background:new 0 0 496.158 496.158;"
   xml:space="preserve"
   sodipodi:docname="six.svg"
   inkscape:version="0.92.2 (5c3e80d, 2017-08-06)"><metadata
     id="metadata4909"><rdf:RDF><cc:Work
         rdf:about=""><dc:format>image/svg+xml</dc:format><dc:type
           rdf:resource="http://purl.org/dc/dcmitype/StillImage" /></cc:Work></rdf:RDF></metadata><defs
     id="defs4907" /><sodipodi:namedview
     pagecolor="#ffffff"
     bordercolor="#666666"
     borderopacity="1"
     objecttolerance="10"
     gridtolerance="10"
     guidetolerance="10"
     inkscape:pageopacity="0"
     inkscape:pageshadow="2"
     inkscape:window-width="640"
     inkscape:window-height="480"
     id="namedview4905"
     showgrid="false"
     inkscape:zoom="0.47565494"
     inkscape:cx="-37.842559"
     inkscape:cy="248.07899"
     inkscape:window-x="0"
     inkscape:window-y="0"
     inkscape:window-maximized="0"
     inkscape:current-layer="Layer_1" /><path
     style="fill:#FFFFFF;"
     d="M321.248,258.652c-3.223-8.69-7.789-16.234-13.696-22.632c-5.91-6.395-12.794-11.327-20.654-14.795  c-7.862-3.465-16.432-5.2-25.708-5.2c-9.668,0-18.409,1.904-26.221,5.713c-7.814,3.809-15.04,9.668-21.68,17.578  c1.268-26.562,5.468-45.019,12.598-55.371c3.516-5.077,7.837-9.105,12.964-12.085c5.127-2.978,10.277-4.468,15.454-4.468  c6.445,0,12.108,1.783,16.992,5.347c4.882,3.566,8.446,8.276,10.693,14.136c1.659,4.591,4.248,8.18,7.764,10.767  c3.516,2.589,7.324,3.882,11.426,3.882c4.688,0,8.544-1.634,11.572-4.907c3.026-3.271,4.541-6.908,4.541-10.913  c0-6.64-2.417-13.573-7.251-20.801c-4.834-7.226-12.012-13.28-21.533-18.164c-9.521-4.882-20.533-7.324-33.032-7.324  c-12.989,0-24.562,2.442-34.717,7.324c-10.158,4.884-18.8,12.11-25.928,21.68c-7.13,9.572-12.598,21.632-16.406,36.182  c-3.809,14.552-5.713,31.055-5.713,49.512c0,22.657,3.149,41.821,9.448,57.495s15.404,27.516,27.319,35.522  c11.913,8.009,26.074,12.012,42.48,12.012c14.257,0,27.026-3.149,38.306-9.448s20.068-15.063,26.367-26.294  c6.299-11.229,9.448-23.73,9.448-37.5C326.082,276.427,324.471,267.345,321.248,258.652z M277.303,318.198  c-6.445,8.057-14.601,12.085-24.463,12.085c-10.353,0-18.947-4.395-25.781-13.184c-6.837-8.789-10.254-19.775-10.254-32.959  c0-8.203,1.685-15.355,5.054-21.46c3.369-6.102,7.812-10.767,13.33-13.989c5.516-3.223,11.302-4.834,17.358-4.834  c6.347,0,12.158,1.685,17.432,5.054c5.274,3.369,9.423,8.253,12.451,14.648c3.026,6.397,4.541,14.04,4.541,22.925  C286.971,299.571,283.748,310.141,277.303,318.198z"
     id="path4872" /><g
     id="g4874" /><g
     id="g4876" /><g
     id="g4878" /><g
     id="g4880" /><g
     id="g4882" /><g
     id="g4884" /><g
     id="g4886" /><g
     id="g4888" /><g
     id="g4890" /><g
     id="g4892" /><g
     id="g4894" /><g
     id="g4896" /><g
     id="g4898" /><g
     id="g4900" /><g
     id="g4902" /></svg>