<?xml version="1.0" encoding="UTF-8" standalone="no"?>
<!-- Generator: Adobe Illustrator 19.0.0, SVG Export Plug-In . SVG Version: 6.00 Build 0)  -->

<svg
   xmlns:dc="http://purl.org/dc/elements/1.1/"
   xmlns:cc="http://creativecommons.org/ns#"
   xmlns:rdf="http://www.w3.org/1999/02/22-rdf-syntax-ns#"
   xmlns:svg="http://www.w3.org/2000/svg"
   xmlns="http://www.w3.org/2000/svg"
   xmlns:sodipodi="http://sodipodi.sourceforge.net/DTD/sodipodi-0.dtd"
   xmlns:inkscape="http://www.inkscape.org/namespaces/inkscape"
   version="1.1"
   id="Layer_1"
   x="0px"
   y="0px"
   viewBox="0 0 496.158 496.158"
   style="enable-background:new 0 0 496.158 496.158;"
   xml:space="preserve"
   sodipodi:docname="nine.svg"
   inkscape:version="0.92.2 (5c3e80d, 2017-08-06)"><metadata
     id="metadata14023"><rdf:RDF><cc:Work
         rdf:about=""><dc:format>image/svg+xml</dc:format><dc:type
           rdf:resource="http://purl.org/dc/dcmitype/StillImage" /></cc:Work></rdf:RDF></metadata><defs
     id="defs14021" /><sodipodi:namedview
     pagecolor="#ffffff"
     bordercolor="#666666"
     borderopacity="1"
     objecttolerance="10"
     gridtolerance="10"
     guidetolerance="10"
     inkscape:pageopacity="0"
     inkscape:pageshadow="2"
     inkscape:window-width="640"
     inkscape:window-height="480"
     id="namedview14019"
     showgrid="false"
     inkscape:zoom="0.47565494"
     inkscape:cx="-37.842559"
     inkscape:cy="248.07899"
     inkscape:window-x="0"
     inkscape:window-y="0"
     inkscape:window-maximized="0"
     inkscape:current-layer="Layer_1" /><path
     style="fill:#FFFFFF;"
     d="M316.413,199.326c-3.614-13.28-8.789-24.291-15.527-33.032c-6.738-8.739-15.04-15.404-24.902-19.995  c-9.864-4.589-21.094-6.885-33.691-6.885c-10.938,0-20.925,1.856-29.956,5.566c-9.034,3.712-16.822,8.888-23.364,15.527  c-6.544,6.642-11.572,14.479-15.088,23.511c-3.516,9.034-5.273,18.581-5.273,28.638c0,9.375,1.562,18.336,4.688,26.88  c3.124,8.546,7.592,16.017,13.403,22.412c5.809,6.397,12.693,11.378,20.654,14.941c7.958,3.566,16.527,5.347,25.708,5.347  c9.668,0,18.479-1.927,26.44-5.786c7.958-3.856,15.161-9.595,21.606-17.212c-1.368,26.466-5.566,44.923-12.598,55.371  c-3.516,5.177-7.764,9.181-12.744,12.012c-4.98,2.833-10.254,4.248-15.82,4.248c-6.251,0-11.865-1.781-16.846-5.347  c-4.98-3.563-8.546-8.276-10.693-14.136c-1.758-4.784-4.347-8.373-7.764-10.767c-3.419-2.392-7.276-3.589-11.572-3.589  c-4.688,0-8.546,1.611-11.572,4.834c-3.028,3.223-4.541,6.885-4.541,10.986c0,6.642,2.44,13.55,7.324,20.728  c4.882,7.178,12.012,13.184,21.387,18.018s20.409,7.251,33.105,7.251c12.891,0,24.413-2.369,34.57-7.104  c10.155-4.735,18.871-11.961,26.147-21.68c7.273-9.716,12.817-21.728,16.626-36.035c3.809-14.305,5.713-30.835,5.713-49.585  C321.833,227.647,320.025,212.608,316.413,199.326z M272.541,235.8c-3.468,6.056-7.961,10.67-13.477,13.843  c-5.519,3.175-11.305,4.761-17.358,4.761c-9.864,0-18.018-3.856-24.463-11.572c-6.445-7.713-9.668-18.065-9.668-31.055  c0-13.085,3.223-23.607,9.668-31.567c6.445-7.958,14.306-11.938,23.584-11.938c5.37,0,10.327,1.172,14.868,3.516  c4.541,2.344,8.445,5.566,11.719,9.668c3.271,4.102,5.809,8.961,7.617,14.575c1.806,5.617,2.71,11.744,2.71,18.384  C277.741,222.617,276.006,229.746,272.541,235.8z"
     id="path13986" /><g
     id="g13988" /><g
     id="g13990" /><g
     id="g13992" /><g
     id="g13994" /><g
     id="g13996" /><g
     id="g13998" /><g
     id="g14000" /><g
     id="g14002" /><g
     id="g14004" /><g
     id="g14006" /><g
     id="g14008" /><g
     id="g14010" /><g
     id="g14012" /><g
     id="g14014" /><g
     id="g14016" /></svg>